<?xml version="1.0" encoding="UTF-8"?>
<svg id="mensaplan" xmlns="http://www.w3.org/2000/svg" xmlns:xlink="http://www.w3.org/1999/xlink" viewBox="0 0 1155.79 607.46">
  <defs>
    <style>
      .cls-1 {
        fill: url(#Unbenannter_Verlauf_5-16);
      }

      .cls-1, .cls-2, .cls-3, .cls-4, .cls-5, .cls-6, .cls-7, .cls-8, .cls-9, .cls-10, .cls-11, .cls-12, .cls-13, .cls-14, .cls-15, .cls-16, .cls-17, .cls-18, .cls-19, .cls-20, .cls-21, .cls-22, .cls-23, .cls-24, .cls-25, .cls-26, .cls-27, .cls-28, .cls-29, .cls-30, .cls-31, .cls-32, .cls-33, .cls-34, .cls-35, .cls-36, .cls-37, .cls-38, .cls-39, .cls-40 {
        stroke-width: 0px;
      }

      .cls-2 {
        fill: url(#Unbenannter_Verlauf_5-17);
      }

      .cls-3 {
        fill: url(#Unbenannter_Verlauf_5-14);
      }

      .cls-4 {
        fill: url(#Unbenannter_Verlauf_5-18);
      }

      .cls-5 {
        fill: url(#Unbenannter_Verlauf_5-19);
      }

      .cls-6 {
        fill: url(#Unbenannter_Verlauf_5-15);
      }

      .cls-7 {
        fill: url(#Unbenannter_Verlauf_5-11);
      }

      .cls-8 {
        fill: url(#Unbenannter_Verlauf_5-10);
      }

      .cls-9 {
        fill: url(#Unbenannter_Verlauf_5-21);
      }

      .cls-10 {
        fill: url(#Unbenannter_Verlauf_5-13);
      }

      .cls-11 {
        fill: url(#Unbenannter_Verlauf_5-12);
      }

      .cls-12 {
        fill: url(#Unbenannter_Verlauf_5-23);
      }

      .cls-13 {
        fill: url(#Unbenannter_Verlauf_5-22);
      }

      .cls-14 {
        fill: url(#Unbenannter_Verlauf_5-20);
      }

      .cls-15 {
        fill: rgba(255, 255, 255, .8);
      }

      .cls-16 {
        fill: url(#Unbenannter_Verlauf_5-2);
      }

      .cls-17 {
        fill: url(#Unbenannter_Verlauf_5-6);
      }

      .cls-18 {
        fill: url(#Unbenannter_Verlauf_5-5);
      }

      .cls-19 {
        fill: url(#Unbenannter_Verlauf_5-3);
      }

      .cls-20 {
        fill: url(#Unbenannter_Verlauf_5-8);
      }

      .cls-21 {
        fill: url(#Unbenannter_Verlauf_5-7);
      }

      .cls-22 {
        fill: url(#Unbenannter_Verlauf_5-9);
      }

      .cls-23 {
        fill: url(#Unbenannter_Verlauf_5-4);
      }

      .cls-24 {
        fill: rgba(255, 255, 255, .2);
      }

      .cls-25 {
        fill: url(#Unbenannter_Verlauf_4);
      }

      .cls-25, .cls-28 {
        fill-opacity: .8;
      }

      .cls-26 {
        fill: url(#Unbenannter_Verlauf_5);
      }

      .cls-27 {
        fill: rgba(255, 255, 255, .65);
      }

      .cls-28 {
        fill: url(#Unbenannter_Verlauf_4-2);
      }

      .cls-41 {
        opacity: .8;
      }

      .cls-29, .cls-34 {
        fill: #cfcfcf;
      }

      .cls-29, .cls-40 {
        fill-rule: evenodd;
      }

      .cls-30 {
        fill: rgba(255, 255, 255, .35);
      }

      .cls-31 {
        fill: rgba(255, 255, 255, .1);
      }

      .cls-32 {
        fill: rgba(255, 255, 255, .05);
      }

      .cls-42 {
        fill: none;
        stroke: #c1c1c1;
        stroke-width: 6px;
      }

      .cls-33 {
        fill: rgba(255, 255, 255, .5);
      }

      .cls-35 {
        fill: #a9b1c5;
      }

      .cls-36 {
        fill: #919fbc;
      }

      .cls-37 {
        fill: #fff;
      }

      .cls-38 {
        fill: #e86c60;
      }

      .cls-39 {
        fill: #eff3f9;
      }

      .cls-40 {
        fill: rgba(255, 255, 255, .45);
      }
    </style>
    <linearGradient id="Unbenannter_Verlauf_4" data-name="Unbenannter Verlauf 4" x1="462.67" y1="527.31" x2="462.67" y2="586.86" gradientUnits="userSpaceOnUse">
      <stop offset="0" stop-color="#fff"/>
      <stop offset="1" stop-color="#fff" stop-opacity="0"/>
    </linearGradient>
    <linearGradient id="Unbenannter_Verlauf_4-2" data-name="Unbenannter Verlauf 4" x1="692.64" x2="692.64" xlink:href="#Unbenannter_Verlauf_4"/>
    <linearGradient id="Unbenannter_Verlauf_5" data-name="Unbenannter Verlauf 5" x1="577.6" y1="24.95" x2="577.6" y2="22.49" gradientTransform="translate(-.04 -6.01)" gradientUnits="userSpaceOnUse">
      <stop offset="0" stop-color="#000" stop-opacity=".1"/>
      <stop offset="1" stop-color="#000" stop-opacity="0"/>
    </linearGradient>
    <linearGradient id="Unbenannter_Verlauf_5-2" data-name="Unbenannter Verlauf 5" x1="577.5" y1="-487.03" x2="577.5" y2="-489.49" gradientTransform="translate(.16 1017.96)" xlink:href="#Unbenannter_Verlauf_5"/>
    <linearGradient id="Unbenannter_Verlauf_5-3" data-name="Unbenannter Verlauf 5" x1="407.69" y1="-487.03" x2="407.69" y2="-489.49" gradientTransform="translate(339.77 1017.96)" xlink:href="#Unbenannter_Verlauf_5"/>
    <linearGradient id="Unbenannter_Verlauf_5-4" data-name="Unbenannter Verlauf 5" x1="961.59" y1="-79.07" x2="961.59" y2="-81.53" gradientTransform="translate(-768.03 202.04)" xlink:href="#Unbenannter_Verlauf_5"/>
    <linearGradient id="Unbenannter_Verlauf_5-5" data-name="Unbenannter Verlauf 5" x1="193.53" y1="-79.07" x2="193.53" y2="-81.53" gradientTransform="translate(768.09 202.04)" xlink:href="#Unbenannter_Verlauf_5"/>
    <linearGradient id="Unbenannter_Verlauf_5-6" data-name="Unbenannter Verlauf 5" x1="965.57" y1="-435.05" x2="965.57" y2="-437.51" gradientTransform="translate(-776 913.99)" xlink:href="#Unbenannter_Verlauf_5"/>
    <linearGradient id="Unbenannter_Verlauf_5-7" data-name="Unbenannter Verlauf 5" x1="189.56" y1="-435.02" x2="189.56" y2="-437.54" gradientTransform="translate(776.03 913.99)" xlink:href="#Unbenannter_Verlauf_5"/>
    <linearGradient id="Unbenannter_Verlauf_5-8" data-name="Unbenannter Verlauf 5" x1="748.27" y1="-487.03" x2="748.27" y2="-489.49" gradientTransform="translate(-341.38 1017.96)" xlink:href="#Unbenannter_Verlauf_5"/>
    <linearGradient id="Unbenannter_Verlauf_5-9" data-name="Unbenannter Verlauf 5" x1="577.57" y1="447.93" x2="577.57" y2="445.47" gradientTransform="matrix(1,0,0,1,0,0)" xlink:href="#Unbenannter_Verlauf_5"/>
    <linearGradient id="Unbenannter_Verlauf_5-10" data-name="Unbenannter Verlauf 5" x1="575.54" y1="359.99" x2="575.54" y2="357.5" gradientTransform="translate(2.04 15.02)" xlink:href="#Unbenannter_Verlauf_5"/>
    <linearGradient id="Unbenannter_Verlauf_5-11" data-name="Unbenannter Verlauf 5" x1="577.57" y1="287.06" x2="577.57" y2="284.6" gradientTransform="translate(0 14.87)" xlink:href="#Unbenannter_Verlauf_5"/>
    <linearGradient id="Unbenannter_Verlauf_5-12" data-name="Unbenannter Verlauf 5" x1="456.07" y1="460.47" x2="456.07" y2="458" gradientTransform="matrix(1,0,0,1,0,0)" xlink:href="#Unbenannter_Verlauf_5"/>
    <linearGradient id="Unbenannter_Verlauf_5-13" data-name="Unbenannter Verlauf 5" x1="456.07" y1="450.47" x2="456.07" y2="448" gradientTransform="matrix(1,0,0,1,0,0)" xlink:href="#Unbenannter_Verlauf_5"/>
    <linearGradient id="Unbenannter_Verlauf_5-14" data-name="Unbenannter Verlauf 5" x1="699.07" y1="450.47" x2="699.07" y2="445.47" gradientTransform="matrix(1,0,0,1,0,0)" xlink:href="#Unbenannter_Verlauf_5"/>
    <linearGradient id="Unbenannter_Verlauf_5-15" data-name="Unbenannter Verlauf 5" x1="699.07" y1="460.47" x2="699.07" y2="455.47" gradientTransform="matrix(1,0,0,1,0,0)" xlink:href="#Unbenannter_Verlauf_5"/>
    <linearGradient id="Unbenannter_Verlauf_5-16" data-name="Unbenannter Verlauf 5" x1="456.23" y1="387.47" x2="456.23" y2="382.47" gradientTransform="matrix(1,0,0,1,0,0)" xlink:href="#Unbenannter_Verlauf_5"/>
    <linearGradient id="Unbenannter_Verlauf_5-17" data-name="Unbenannter Verlauf 5" x1="456.23" y1="377.47" x2="456.23" y2="372.47" gradientTransform="matrix(1,0,0,1,0,0)" xlink:href="#Unbenannter_Verlauf_5"/>
    <linearGradient id="Unbenannter_Verlauf_5-18" data-name="Unbenannter Verlauf 5" x1="699.07" y1="387.47" x2="699.07" y2="382.47" gradientTransform="matrix(1,0,0,1,0,0)" xlink:href="#Unbenannter_Verlauf_5"/>
    <linearGradient id="Unbenannter_Verlauf_5-19" data-name="Unbenannter Verlauf 5" x1="699.07" y1="377.47" x2="699.07" y2="372.47" gradientTransform="matrix(1,0,0,1,0,0)" xlink:href="#Unbenannter_Verlauf_5"/>
    <linearGradient id="Unbenannter_Verlauf_5-20" data-name="Unbenannter Verlauf 5" x1="456.07" y1="314.47" x2="456.07" y2="309.47" gradientTransform="matrix(1,0,0,1,0,0)" xlink:href="#Unbenannter_Verlauf_5"/>
    <linearGradient id="Unbenannter_Verlauf_5-21" data-name="Unbenannter Verlauf 5" x1="456.07" y1="304.47" x2="456.07" y2="299.47" gradientTransform="matrix(1,0,0,1,0,0)" xlink:href="#Unbenannter_Verlauf_5"/>
    <linearGradient id="Unbenannter_Verlauf_5-22" data-name="Unbenannter Verlauf 5" x1="699.07" y1="314.47" x2="699.07" y2="309.47" gradientTransform="matrix(1,0,0,1,0,0)" xlink:href="#Unbenannter_Verlauf_5"/>
    <linearGradient id="Unbenannter_Verlauf_5-23" data-name="Unbenannter Verlauf 5" x1="699.07" y1="304.47" x2="699.07" y2="299.47" gradientTransform="matrix(1,0,0,1,0,0)" xlink:href="#Unbenannter_Verlauf_5"/>
  </defs>
  <g id="bg" class="cls-41">
    <path id="BG_Main" class="cls-40" d="m371.26,13.75h412.76v104h356.98v354.48h-354.1v53.52h-420v-53.85l-350.54-2.54V115.21l354.9,2.54V13.75Zm-100.71,278c0,44.18-35.82,80-80,80s-80-35.82-80-80,35.82-80,80-80,80,35.82,80,80Zm694.35,80c44.18,0,80-35.82,80-80s-35.82-80-80-80-80,35.82-80,80,35.82,80,80,80Z"/>
    <polygon id="BG_M3" class="cls-15" points="678.57 462.97 678.57 440.44 476.57 440.44 476.57 462.97 430.57 462.97 430.57 525.75 724.57 525.75 724.57 462.97 678.57 462.97"/>
    <polygon id="BG_M2" class="cls-33" points="678.57 397.47 678.57 367.47 476.57 367.47 476.57 397.47 430.57 397.47 430.57 440.47 724.57 440.47 724.57 397.47 678.57 397.47"/>
    <polygon id="BG_M1" class="cls-24" points="678.57 324.5 678.57 294.5 476.57 294.5 476.57 324.5 430.57 324.5 430.57 367.47 724.57 367.47 724.57 324.5 678.57 324.5"/>
    <rect class="cls-25" x="446.19" y="525.75" width="32.95" height="62.67"/>
    <rect class="cls-28" x="676.16" y="525.75" width="32.95" height="62.67"/>
  </g>
  <g id="FloorPlan">
    <g id="Shadow_Out">
      <rect id="shadow" class="cls-26" x="375.55" y="16.48" width="404" height="2.46" transform="translate(1155.1 35.43) rotate(180)"/>
      <rect id="shadow-2" data-name="shadow" class="cls-16" x="479.14" y="528.47" width="197.02" height="2.46" transform="translate(1155.3 1059.4) rotate(180)"/>
      <rect id="shadow-3" data-name="shadow" class="cls-19" x="709.11" y="528.47" width="76.69" height="2.46" transform="translate(1494.91 1059.4) rotate(180)"/>
      <rect id="shadow-4" data-name="shadow" class="cls-23" x="19.54" y="120.51" width="348.03" height="2.46" transform="translate(387.11 243.48) rotate(180)"/>
      <rect id="shadow-5" data-name="shadow" class="cls-18" x="787.6" y="120.51" width="348.03" height="2.46" transform="translate(1923.24 243.48) rotate(180)"/>
      <rect id="shadow-6" data-name="shadow" class="cls-17" x="11.57" y="476.48" width="356" height="2.46" transform="translate(379.15 955.43) rotate(180)"/>
      <rect id="shadow-7" data-name="shadow" class="cls-21" x="787.6" y="476.46" width="355.97" height="2.52" transform="translate(1931.18 955.43) rotate(180)"/>
      <rect id="shadow-8" data-name="shadow" class="cls-20" x="367.57" y="528.47" width="78.62" height="2.46" transform="translate(813.76 1059.4) rotate(180)"/>
    </g>
    <path id="Walls_Out" class="cls-29" d="m377.57,16.47h400c1.1,0,2,.9,2,2v136c0,1.1.9,2,2,2h4c1.1,0,2-.9,2-2v-32c0-1.1.9-2,2-2h344c1.1,0,2,.9,2,2v344c0,1.1-.9,2-2,2h-344c-1.1,0-2-.9-2-2v-233.07c0-1.1-.9-2-2-2h-4c-1.1,0-2,.9-2,2v285.07c0,1.1-.9,2-2,2h-69c-1.1,0-2,.9-2,2v4c0,1.1.9,2,2,2h77c1.1,0,2-.9,2-2v-48c0-1.1.9-2,2-2h352c1.1,0,2-.9,2-2V114.47c0-1.1-.9-2-2-2h-352c-1.1,0-2-.9-2-2V10.47c0-1.1-.9-2-2-2h-410s-6,0-6,0c-1.1,0-2,.9-2,2v100c0,1.1-.9,2-2,2H13.57c-1.1,0-2,.9-2,2v360c0,1.1.9,2,2,2h352c1.1,0,2,.9,2,2v48c0,1.1.9,2,2,2h77c1.1,0,2-.9,2-2v-4c0-1.1-.9-2-2-2h-69c-1.1,0-2-.9-2-2V233.4c0-1.1-.9-2-2-2h-4c-1.1,0-2,.9-2,2v233.07c0,1.1-.9,2-2,2H21.57c-1.1,0-2-.9-2-2V122.47c0-1.1.9-2,2-2h344c1.1,0,2,.9,2,2v32c0,1.1.9,2,2,2h4c1.1,0,2-.9,2-2V18.47c0-1.1.9-2,2-2Z"/>
    <circle id="Walls_LCircle" class="cls-42" cx="190.56" cy="291.8" r="80" shape-rendering="crispEdges"/>
    <circle id="Walls_RCircle" class="cls-42" cx="964.57" cy="291.8" r="80" shape-rendering="crispEdges"/>
    <path id="Wall_Middle" class="cls-29" d="m577.57,499.47c-41.11,0-77.52,8.05-99.98,20.43-.64.35-1.02,1.03-1.02,1.75v4.82c0,1.1.9,2,2,2h198c1.1,0,2-.9,2-2v-4.82c0-.73-.39-1.4-1.02-1.75-22.45-12.38-58.87-20.43-99.98-20.43Z"/>
    <rect id="shadow-9" data-name="shadow" class="cls-22" x="481.57" y="445.47" width="192" height="2.46" transform="translate(1155.15 893.4) rotate(180)"/>
    <path id="Wall_M3" class="cls-29" d="m481.57,440.47h195c1.1,0,2,.9,2,2v26c0,1.1-.9,2-2,2h-1c-1.1,0-2-.9-2-2v-21c0-1.1-.9-2-2-2h-188c-1.1,0-2,.9-2,2v21c0,1.1-.9,2-2,2h-1c-1.1,0-2-.9-2-2v-26c0-1.1.9-2,2-2h3Z"/>
    <rect id="shadow-10" data-name="shadow" class="cls-8" x="481.57" y="372.51" width="192" height="2.49" transform="translate(1155.15 747.52) rotate(180)"/>
    <path id="Wall_M2" class="cls-29" d="m481.89,367.47h194.68c1.1,0,2,.9,2,2v26c0,1.1-.9,2-2,2h-1c-1.1,0-2-.9-2-2v-21c0-1.1-.9-2-2-2h-187.68c-1.1,0-2,.9-2,2v21c0,1.1-.9,2-2,2h-1c-1.1,0-2-.9-2-2v-26c0-1.1.9-2,2-2h3Z"/>
    <rect id="shadow-11" data-name="shadow" class="cls-7" x="481.57" y="299.47" width="192" height="2.46" transform="translate(1155.15 601.4) rotate(180)"/>
    <path id="Wall_M1" class="cls-29" d="m481.57,294.5h195c1.1,0,2,.9,2,2v26c0,1.1-.9,2-2,2h-1c-1.1,0-2-.9-2-2v-21c0-1.1-.9-2-2-2h-188c-1.1,0-2,.9-2,2v21c0,1.1-.9,2-2,2h-1c-1.1,0-2-.9-2-2v-26c0-1.1.9-2,2-2h3Z"/>
    <path id="Wall_MR" class="cls-34" d="m721.57,266.42h1c1.1,0,2,.9,2,2v252h-5v-252c0-1.1.9-2,2-2Z"/>
    <path id="Wall_ML" class="cls-34" d="m432.57,266.42h1c1.1,0,2,.9,2,2v252.09h-5v-252.09c0-1.1.9-2,2-2Z"/>
    <g id="Stair_M3L">
      <rect id="Stair" class="cls-15" x="435.57" y="460.47" width="41" height="10"/>
      <rect id="Stair-2" data-name="Stair" class="cls-27" x="435.57" y="450.47" width="41" height="10"/>
      <rect id="Stair-3" data-name="Stair" class="cls-33" x="435.57" y="440.47" width="41" height="10"/>
      <rect id="shadow-12" data-name="shadow" class="cls-11" x="435.57" y="458" width="41" height="2.46"/>
      <rect id="shadow-13" data-name="shadow" class="cls-10" x="435.57" y="448" width="41" height="2.46"/>
    </g>
    <g id="Stair_M3R">
      <rect id="Stair-4" data-name="Stair" class="cls-15" x="678.57" y="460.47" width="41" height="10"/>
      <rect id="Stair-5" data-name="Stair" class="cls-27" x="678.57" y="450.47" width="41" height="10"/>
      <rect id="Stair-6" data-name="Stair" class="cls-33" x="678.57" y="440.47" width="41" height="10"/>
      <rect id="shadow-14" data-name="shadow" class="cls-3" x="678.57" y="445.47" width="41" height="5"/>
      <rect id="shadow-15" data-name="shadow" class="cls-6" x="678.57" y="455.47" width="41" height="5"/>
    </g>
    <g id="Stair_M2L">
      <rect id="Stair-7" data-name="Stair" class="cls-33" x="435.57" y="387.47" width="41" height="10"/>
      <rect id="Stair-8" data-name="Stair" class="cls-30" x="435.57" y="377.47" width="41" height="10"/>
      <rect id="shadow-16" data-name="shadow" class="cls-1" x="435.57" y="382.47" width="41.32" height="5"/>
      <rect id="shadow-17" data-name="shadow" class="cls-2" x="435.57" y="372.47" width="41.32" height="5"/>
    </g>
    <g id="Stair_M2R">
      <rect id="Stair-9" data-name="Stair" class="cls-33" x="678.57" y="387.47" width="41" height="10"/>
      <rect id="Stair-10" data-name="Stair" class="cls-30" x="678.57" y="377.47" width="41" height="10"/>
      <rect id="Stair-11" data-name="Stair" class="cls-24" x="678.57" y="367.47" width="41" height="10"/>
      <rect id="shadow-18" data-name="shadow" class="cls-4" x="678.57" y="382.47" width="41" height="5"/>
      <rect id="shadow-19" data-name="shadow" class="cls-5" x="678.57" y="372.47" width="41" height="5"/>
    </g>
    <g id="Stair_M1L">
      <rect id="Stair-12" data-name="Stair" class="cls-24" x="435.57" y="314.47" width="41" height="10"/>
      <rect id="Stair-13" data-name="Stair" class="cls-31" x="435.57" y="304.47" width="41" height="10"/>
      <rect id="Stair-14" data-name="Stair" class="cls-32" x="435.57" y="294.47" width="41" height="10"/>
      <rect id="shadow-20" data-name="shadow" class="cls-14" x="435.57" y="309.47" width="41" height="5"/>
      <rect id="shadow-21" data-name="shadow" class="cls-9" x="435.57" y="299.47" width="41" height="5"/>
    </g>
    <g id="Stair_M1R">
      <rect id="Stair-15" data-name="Stair" class="cls-24" x="678.57" y="314.47" width="41" height="10"/>
      <rect id="Stair-16" data-name="Stair" class="cls-31" x="678.57" y="304.47" width="41" height="10"/>
      <rect id="Stair-17" data-name="Stair" class="cls-32" x="678.57" y="294.47" width="41" height="10"/>
      <rect id="shadow-22" data-name="shadow" class="cls-13" x="678.57" y="309.47" width="41" height="5"/>
      <rect id="shadow-23" data-name="shadow" class="cls-12" x="678.57" y="299.47" width="41" height="5"/>
    </g>
  </g>
  <g id="tbl">
    <g id="tbl_M">
      <circle id="Table_M3L_4" class="cls-35" cx="448.44" cy="506.97" r="7.5"/>
      <circle id="Table_M3L_3" class="cls-35" cx="492.43" cy="503.38" r="7.5"/>
      <rect id="Table_M3L_2" class="cls-35" x="492.43" y="453.13" width="20" height="20" rx="1.67" ry="1.67"/>
      <rect id="Table_M3L_1" class="cls-35" x="528.83" y="453.13" width="20" height="20" rx="1.67" ry="1.67"/>
      <circle id="Table_M3M_3" class="cls-35" cx="549.3" cy="490.41" r="7.5"/>
      <path id="Table_M3M_2" class="cls-35" d="m567.14,453.13h36.19c1.05,0,1.9.75,1.9,1.67v16.67c0,.92-.85,1.67-1.9,1.67h-36.19c-1.05,0-1.9-.75-1.9-1.67v-16.67c0-.92.85-1.67,1.9-1.67Z"/>
      <circle id="Table_M3M_1" class="cls-35" cx="606.17" cy="490.41" r="7.5"/>
      <path id="Table_M3R_3" class="cls-35" d="m624.94,453.13h36.19c1.05,0,1.9.75,1.9,1.67v16.67c0,.92-.85,1.67-1.9,1.67h-36.19c-1.05,0-1.9-.75-1.9-1.67v-16.67c0-.92.85-1.67,1.9-1.67Z"/>
      <circle id="Table_M3R_2" class="cls-35" cx="663.04" cy="503.38" r="7.5"/>
      <circle id="Table_M3R_1" class="cls-35" cx="706.57" cy="506.97" r="7.5"/>
      <circle id="Table_M2L_4" class="cls-35" cx="499.93" cy="422.41" r="7.5"/>
      <circle id="Table_M2L_3" class="cls-35" cx="499.93" cy="387.47" r="7.5"/>
      <circle id="Table_M2L_2" class="cls-35" cx="538.83" cy="422.41" r="7.5"/>
      <circle id="Table_M2L_1" class="cls-35" cx="538.83" cy="387.47" r="7.5"/>
      <circle id="Table_M2M_2" class="cls-35" cx="577.73" cy="422.41" r="7.5"/>
      <circle id="Table_M2M_1" class="cls-35" cx="577.73" cy="387.47" r="7.5"/>
      <circle id="Table_M2R_4" class="cls-35" cx="616.64" cy="422.41" r="7.5"/>
      <circle id="Table_M2R_3" class="cls-35" cx="616.64" cy="387.47" r="7.5"/>
      <circle id="Table_M2R_2" class="cls-35" cx="655.54" cy="422.41" r="7.5"/>
      <circle id="Table_M2R_1" class="cls-35" cx="655.54" cy="387.47" r="7.5"/>
      <circle id="Table_M1L_4" class="cls-35" cx="499.93" cy="348.45" r="7.5"/>
      <circle id="Table_M1L_3" class="cls-35" cx="499.93" cy="313.51" r="7.5"/>
      <circle id="Table_M1L_2" class="cls-35" cx="538.83" cy="348.45" r="7.5"/>
      <circle id="Table_M1L_1" class="cls-35" cx="538.83" cy="313.51" r="7.5"/>
      <circle id="Table_M1M_2" class="cls-35" cx="577.73" cy="348.45" r="7.5"/>
      <circle id="Table_M1M_1" class="cls-35" cx="577.73" cy="313.51" r="7.5"/>
      <circle id="Table_M1R_4" class="cls-35" cx="616.64" cy="348.45" r="7.5"/>
      <circle id="Table_M1R_3" class="cls-35" cx="616.64" cy="313.51" r="7.5"/>
      <circle id="Table_M1R_2" class="cls-35" cx="655.54" cy="348.45" r="7.5"/>
      <circle id="Table_M1R_1" class="cls-35" cx="655.54" cy="313.51" r="7.5"/>
      <circle id="Table_M0L_2" class="cls-35" cx="499.93" cy="277.3" r="7.5"/>
      <circle id="Table_M0L_1" class="cls-35" cx="538.83" cy="277.3" r="7.5"/>
      <circle id="Table_M0M_1" class="cls-35" cx="577.73" cy="277.3" r="7.5"/>
      <circle id="Table_M0R_2" class="cls-35" cx="616.64" cy="277.3" r="7.5"/>
      <circle id="Table_M0R_1" class="cls-35" cx="655.54" cy="277.3" r="7.5"/>
    </g>
    <g id="tbl_R">
      <g id="tbl_RA">
        <path id="Table_R12A_2" class="cls-35" d="m991.05,121.91v27.14c0,.79-.75,1.43-1.67,1.43h-16.67c-.92,0-1.67-.64-1.67-1.43v-27.14c0-.79.75-1.43,1.67-1.43h16.67c.92,0,1.67.64,1.67,1.43Z"/>
        <path id="Table_R12A_3" class="cls-35" d="m1029.91,121.91v27.14c0,.79-.75,1.43-1.67,1.43h-16.67c-.92,0-1.67-.64-1.67-1.43v-27.14c0-.79.75-1.43,1.67-1.43h16.67c.92,0,1.67.64,1.67,1.43Z"/>
        <path id="Table_R12A_1" class="cls-35" d="m952.19,121.91v27.14c0,.79-.75,1.43-1.67,1.43h-16.67c-.92,0-1.67-.64-1.67-1.43v-27.14c0-.79.75-1.43,1.67-1.43h16.67c.92,0,1.67.64,1.67,1.43Z"/>
        <path id="Table_R9A_3" class="cls-35" d="m789,245.16h27.14c.79,0,1.43.75,1.43,1.67v16.67c0,.92-.64,1.67-1.43,1.67h-27.14c-.79,0-1.43-.75-1.43-1.67v-16.67c0-.92.64-1.67,1.43-1.67Z"/>
        <path id="Table_R9A_2" class="cls-35" d="m789,279.55h27.14c.79,0,1.43.75,1.43,1.67v16.67c0,.92-.64,1.67-1.43,1.67h-27.14c-.79,0-1.43-.75-1.43-1.67v-16.67c0-.92.64-1.67,1.43-1.67Z"/>
        <path id="Table_R9A_1" class="cls-35" d="m789,313.93h27.14c.79,0,1.43.75,1.43,1.67v16.67c0,.92-.64,1.67-1.43,1.67h-27.14c-.79,0-1.43-.75-1.43-1.67v-16.67c0-.92.64-1.67,1.43-1.67Z"/>
        <circle id="Table_R8A_3" class="cls-35" cx="810.08" cy="445.47" r="17.5"/>
        <path id="Table_R8A_2" class="cls-35" d="m789,348.32h27.14c.79,0,1.43.75,1.43,1.67v16.67c0,.92-.64,1.67-1.43,1.67h-27.14c-.79,0-1.43-.75-1.43-1.67v-16.67c0-.92.64-1.67,1.43-1.67Z"/>
        <path id="Table_R8A_1" class="cls-35" d="m789.48,382.7h36.19c1.05,0,1.9.75,1.9,1.67v16.67c0,.92-.85,1.67-1.9,1.67h-36.19c-1.05,0-1.9-.75-1.9-1.67v-16.67c0-.92.85-1.67,1.9-1.67Z"/>
        <path id="Table_R7A_1" class="cls-35" d="m874.47,430.37v36.19c0,1.05-.75,1.9-1.67,1.9h-16.67c-.92,0-1.67-.85-1.67-1.9v-36.19c0-1.05.75-1.9,1.67-1.9h16.67c.92,0,1.67.85,1.67,1.9Z"/>
        <path id="Table_R6A_3" class="cls-35" d="m913.33,439.89v27.14c0,.79-.75,1.43-1.67,1.43h-16.67c-.92,0-1.67-.64-1.67-1.43v-27.14c0-.79.75-1.43,1.67-1.43h16.67c.92,0,1.67.64,1.67,1.43Z"/>
        <path id="Table_R6A_2" class="cls-35" d="m952.19,439.89v27.14c0,.79-.75,1.43-1.67,1.43h-16.67c-.92,0-1.67-.64-1.67-1.43v-27.14c0-.79.75-1.43,1.67-1.43h16.67c.92,0,1.67.64,1.67,1.43Z"/>
        <path id="Table_R6A_1" class="cls-35" d="m991.05,439.89v27.14c0,.79-.75,1.43-1.67,1.43h-16.67c-.92,0-1.67-.64-1.67-1.43v-27.14c0-.79.75-1.43,1.67-1.43h16.67c.92,0,1.67.64,1.67,1.43Z"/>
        <path id="Table_R5A_3" class="cls-35" d="m1029.91,430.37v36.19c0,1.05-.75,1.9-1.67,1.9h-16.67c-.92,0-1.67-.85-1.67-1.9v-36.19c0-1.05.75-1.9,1.67-1.9h16.67c.92,0,1.67.85,1.67,1.9Z"/>
        <path id="Table_R5A_2" class="cls-35" d="m1068.77,430.37v36.19c0,1.05-.75,1.9-1.67,1.9h-16.67c-.92,0-1.67-.85-1.67-1.9v-36.19c0-1.05.75-1.9,1.67-1.9h16.67c.92,0,1.67.85,1.67,1.9Z"/>
        <circle id="Table_R5A_1" class="cls-35" cx="1113.14" cy="445.47" r="17.5"/>
        <path id="Table_R4A_2" class="cls-35" d="m1134.14,402.7h-27.14c-.79,0-1.43-.75-1.43-1.67v-16.67c0-.92.64-1.67,1.43-1.67h27.14c.79,0,1.43.75,1.43,1.67v16.67c0,.92-.64,1.67-1.43,1.67Z"/>
        <path id="Table_R4A_1" class="cls-35" d="m1134.14,368.32h-27.14c-.79,0-1.43-.75-1.43-1.67v-16.67c0-.92.64-1.67,1.43-1.67h27.14c.79,0,1.43.75,1.43,1.67v16.67c0,.92-.64,1.67-1.43,1.67Z"/>
        <path id="Table_R3A_4" class="cls-35" d="m1134.14,333.93h-27.14c-.79,0-1.43-.75-1.43-1.67v-16.67c0-.92.64-1.67,1.43-1.67h27.14c.79,0,1.43.75,1.43,1.67v16.67c0,.92-.64,1.67-1.43,1.67Z"/>
        <path id="Table_R3A_2" class="cls-35" d="m1134.14,299.55h-27.14c-.79,0-1.43-.75-1.43-1.67v-16.67c0-.92.64-1.67,1.43-1.67h27.14c.79,0,1.43.75,1.43,1.67v16.67c0,.92-.64,1.67-1.43,1.67Z"/>
        <path id="Table_R3A_1" class="cls-35" d="m1134.14,265.16h-27.14c-.79,0-1.43-.75-1.43-1.67v-16.67c0-.92.64-1.67,1.43-1.67h27.14c.79,0,1.43.75,1.43,1.67v16.67c0,.92-.64,1.67-1.43,1.67Z"/>
        <path id="Table_R2A_1" class="cls-35" d="m1133.67,230.78h-36.19c-1.05,0-1.9-.75-1.9-1.67v-16.67c0-.92.85-1.67,1.9-1.67h36.19c1.05,0,1.9.75,1.9,1.67v16.67c0,.92-.85,1.67-1.9,1.67Z"/>
        <path id="Table_R1A_3" class="cls-35" d="m1133.67,196.4h-36.19c-1.05,0-1.9-.75-1.9-1.67v-16.67c0-.92.85-1.67,1.9-1.67h36.19c1.05,0,1.9.75,1.9,1.67v16.67c0,.92-.85,1.67-1.9,1.67Z"/>
        <circle id="Table_R1A_2" class="cls-35" cx="1113.14" cy="143.75" r="17.5"/>
        <path id="Table_R1A_1" class="cls-35" d="m1068.77,121.91v27.14c0,.79-.75,1.43-1.67,1.43h-16.67c-.92,0-1.67-.64-1.67-1.43v-27.14c0-.79.75-1.43,1.67-1.43h16.67c.92,0,1.67.64,1.67,1.43Z"/>
      </g>
      <g id="tbl_RI">
        <path id="Table_R12I_1" class="cls-35" d="m974.58,179.84v27.14c0,.79-.75,1.43-1.67,1.43h-16.67c-.92,0-1.67-.64-1.67-1.43v-27.14c0-.79.75-1.43,1.67-1.43h16.67c.92,0,1.67.64,1.67,1.43Z"/>
        <path id="Table_R11I_1" class="cls-35" d="m930.97,184.53l10.39,25.08c.3.73-.14,1.61-.99,1.96l-15.4,6.38c-.85.35-1.78.05-2.09-.68l-10.39-25.08c-.3-.73.14-1.61.99-1.96l15.4-6.38c.85-.35,1.78-.05,2.09.68Z"/>
        <path id="Table_R10I_2" class="cls-35" d="m892.48,205.56l19.19,19.19c.56.56.48,1.54-.17,2.19l-11.79,11.79c-.65.65-1.63.73-2.19.17l-19.19-19.19c-.56-.56-.48-1.54.17-2.19l11.79-11.79c.65-.65,1.63-.73,2.19-.17Z"/>
        <path id="Table_R10I_1" class="cls-35" d="m864.96,239.71l25.08,10.39c.73.3,1.03,1.24.68,2.09l-6.38,15.4c-.35.85-1.23,1.3-1.96.99l-25.08-10.39c-.73-.3-1.03-1.24-.68-2.09l6.38-15.4c.35-.85,1.23-1.3,1.96-.99Z"/>
        <path id="Table_R9I_1" class="cls-35" d="m852.61,281.79h27.14c.79,0,1.43.75,1.43,1.67v16.67c0,.92-.64,1.67-1.43,1.67h-27.14c-.79,0-1.43-.75-1.43-1.67v-16.67c0-.92.64-1.67,1.43-1.67Z"/>
        <path id="Table_R8I_2" class="cls-35" d="m857.31,325.4l25.08-10.39c.73-.3,1.61.14,1.96.99l6.38,15.4c.35.85.05,1.78-.68,2.09l-25.08,10.39c-.73.3-1.61-.14-1.96-.99l-6.38-15.4c-.35-.85-.05-1.78.68-2.09Z"/>
        <path id="Table_R8I_1" class="cls-35" d="m878.33,363.89l19.19-19.19c.56-.56,1.54-.48,2.19.17l11.79,11.79c.65.65.73,1.63.17,2.19l-19.19,19.19c-.56.56-1.54.48-2.19-.17l-11.79-11.79c-.65-.65-.73-1.63-.17-2.19Z"/>
        <path id="Table_R7I_1" class="cls-35" d="m912.48,391.41l10.39-25.08c.3-.73,1.24-1.03,2.09-.68l15.4,6.38c.85.35,1.3,1.23.99,1.96l-10.39,25.08c-.3.73-1.24,1.03-2.09.68l-15.4-6.38c-.85-.35-1.3-1.23-.99-1.96Z"/>
        <path id="Table_R6I_1" class="cls-35" d="m954.57,403.76v-27.14c0-.79.75-1.43,1.67-1.43h16.67c.92,0,1.67.64,1.67,1.43v27.14c0,.79-.75,1.43-1.67,1.43h-16.67c-.92,0-1.67-.64-1.67-1.43Z"/>
        <path id="Table_R5I_2" class="cls-35" d="m998.18,399.07l-10.39-25.08c-.3-.73.14-1.61.99-1.96l15.4-6.38c.85-.35,1.78-.05,2.09.68l10.39,25.08c.3.73-.14,1.61-.99,1.96l-15.4,6.38c-.85.35-1.78.05-2.09-.68Z"/>
        <path id="Table_R5I_1" class="cls-35" d="m1036.67,378.04l-19.19-19.19c-.56-.56-.48-1.54.17-2.19l11.79-11.79c.65-.65,1.63-.73,2.19-.17l19.19,19.19c.56.56.48,1.54-.17,2.19l-11.79,11.79c-.65.65-1.63.73-2.19.17Z"/>
        <path id="Table_R4I_1" class="cls-35" d="m1064.18,343.89l-25.08-10.39c-.73-.3-1.03-1.24-.68-2.09l6.38-15.4c.35-.85,1.23-1.3,1.96-.99l25.08,10.39c.73.3,1.03,1.24.68,2.09l-6.38,15.4c-.35.85-1.23,1.3-1.96.99Z"/>
        <path id="Table_R3I_1" class="cls-35" d="m1076.54,301.8h-27.14c-.79,0-1.43-.75-1.43-1.67v-16.67c0-.92.64-1.67,1.43-1.67h27.14c.79,0,1.43.75,1.43,1.67v16.67c0,.92-.64,1.67-1.43,1.67Z"/>
        <path id="Table_R2I_2" class="cls-35" d="m1071.84,258.2l-25.08,10.39c-.73.3-1.61-.14-1.96-.99l-6.38-15.4c-.35-.85-.05-1.78.68-2.09l25.08-10.39c.73-.3,1.61.14,1.96.99l6.38,15.4c.35.85.05,1.78-.68,2.09Z"/>
        <path id="Table_R2I_1" class="cls-35" d="m1050.82,219.71l-19.19,19.19c-.56.56-1.54.48-2.19-.17l-11.79-11.79c-.65-.65-.73-1.63-.17-2.19l19.19-19.19c.56-.56,1.54-.48,2.19.17l11.79,11.79c.65.65.73,1.63.17,2.19Z"/>
        <path id="Table_R1I_1" class="cls-35" d="m1016.66,192.19l-10.39,25.08c-.3.73-1.24,1.03-2.09.68l-15.4-6.38c-.85-.35-1.3-1.23-.99-1.96l10.39-25.08c.3-.73,1.24-1.03,2.09-.68l15.4,6.38c.85.35,1.3,1.23.99,1.96Z"/>
      </g>
    </g>
    <g id="tbl_L">
      <g id="tbl_LA">
        <path id="Table_L12A_2" class="cls-35" d="m164.08,121.91v27.14c0,.79.75,1.43,1.67,1.43h16.67c.92,0,1.67-.64,1.67-1.43v-27.14c0-.79-.75-1.43-1.67-1.43h-16.67c-.92,0-1.67.64-1.67,1.43Z"/>
        <path id="Table_L12A_3" class="cls-35" d="m125.22,121.91v27.14c0,.79.75,1.43,1.67,1.43h16.67c.92,0,1.67-.64,1.67-1.43v-27.14c0-.79-.75-1.43-1.67-1.43h-16.67c-.92,0-1.67.64-1.67,1.43Z"/>
        <path id="Table_L12A_1" class="cls-35" d="m202.94,121.91v27.14c0,.79.75,1.43,1.67,1.43h16.67c.92,0,1.67-.64,1.67-1.43v-27.14c0-.79-.75-1.43-1.67-1.43h-16.67c-.92,0-1.67.64-1.67,1.43Z"/>
        <path id="Table_L3A_3" class="cls-35" d="m366.13,245.16h-27.14c-.79,0-1.43.75-1.43,1.67v16.67c0,.92.64,1.67,1.43,1.67h27.14c.79,0,1.43-.75,1.43-1.67v-16.67c0-.92-.64-1.67-1.43-1.67Z"/>
        <path id="Table_L3A_2" class="cls-35" d="m366.13,279.55h-27.14c-.79,0-1.43.75-1.43,1.67v16.67c0,.92.64,1.67,1.43,1.67h27.14c.79,0,1.43-.75,1.43-1.67v-16.67c0-.92-.64-1.67-1.43-1.67Z"/>
        <path id="Table_L3A_1" class="cls-35" d="m366.13,313.93h-27.14c-.79,0-1.43.75-1.43,1.67v16.67c0,.92.64,1.67,1.43,1.67h27.14c.79,0,1.43-.75,1.43-1.67v-16.67c0-.92-.64-1.67-1.43-1.67Z"/>
        <path id="Table_L4A_2" class="cls-35" d="m366.13,348.32h-27.14c-.79,0-1.43.75-1.43,1.67v16.67c0,.92.64,1.67,1.43,1.67h27.14c.79,0,1.43-.75,1.43-1.67v-16.67c0-.92-.64-1.67-1.43-1.67Z"/>
        <path id="Table_L4A_1" class="cls-35" d="m365.65,382.7h-36.19c-1.05,0-1.9.75-1.9,1.67v16.67c0,.92.85,1.67,1.9,1.67h36.19c1.05,0,1.9-.75,1.9-1.67v-16.67c0-.92-.85-1.67-1.9-1.67Z"/>
        <path id="Table_L5A_1" class="cls-35" d="m280.66,430.37v36.19c0,1.05.75,1.9,1.67,1.9h16.67c.92,0,1.67-.85,1.67-1.9v-36.19c0-1.05-.75-1.9-1.67-1.9h-16.67c-.92,0-1.67.85-1.67,1.9Z"/>
        <path id="Table_L5A_2" class="cls-35" d="m241.8,439.89v27.14c0,.79.75,1.43,1.67,1.43h16.67c.92,0,1.67-.64,1.67-1.43v-27.14c0-.79-.75-1.43-1.67-1.43h-16.67c-.92,0-1.67.64-1.67,1.43Z"/>
        <circle id="Table_L5A_3" class="cls-35" cx="345.05" cy="445.47" r="17.5"/>
        <path id="Table_L6A_2" class="cls-35" d="m202.94,439.89v27.14c0,.79.75,1.43,1.67,1.43h16.67c.92,0,1.67-.64,1.67-1.43v-27.14c0-.79-.75-1.43-1.67-1.43h-16.67c-.92,0-1.67.64-1.67,1.43Z"/>
        <path id="Table_L6A_1" class="cls-35" d="m164.08,439.89v27.14c0,.79.75,1.43,1.67,1.43h16.67c.92,0,1.67-.64,1.67-1.43v-27.14c0-.79-.75-1.43-1.67-1.43h-16.67c-.92,0-1.67.64-1.67,1.43Z"/>
        <path id="Table_L7A_3" class="cls-35" d="m125.22,430.37v36.19c0,1.05.75,1.9,1.67,1.9h16.67c.92,0,1.67-.85,1.67-1.9v-36.19c0-1.05-.75-1.9-1.67-1.9h-16.67c-.92,0-1.67.85-1.67,1.9Z"/>
        <path id="Table_L7A_2" class="cls-35" d="m86.37,430.37v36.19c0,1.05.75,1.9,1.67,1.9h16.67c.92,0,1.67-.85,1.67-1.9v-36.19c0-1.05-.75-1.9-1.67-1.9h-16.67c-.92,0-1.67.85-1.67,1.9Z"/>
        <circle id="Table_L8A_3" class="cls-35" cx="42" cy="445.47" r="17.5"/>
        <path id="Table_L8A_2" class="cls-35" d="m20.99,402.7h27.14c.79,0,1.43-.75,1.43-1.67v-16.67c0-.92-.64-1.67-1.43-1.67h-27.14c-.79,0-1.43.75-1.43,1.67v16.67c0,.92.64,1.67,1.43,1.67Z"/>
        <path id="Table_L8A_1" class="cls-35" d="m20.99,368.32h27.14c.79,0,1.43-.75,1.43-1.67v-16.67c0-.92-.64-1.67-1.43-1.67h-27.14c-.79,0-1.43.75-1.43,1.67v16.67c0,.92.64,1.67,1.43,1.67Z"/>
        <path id="Table_L9A_4" class="cls-35" d="m20.99,333.93h27.14c.79,0,1.43-.75,1.43-1.67v-16.67c0-.92-.64-1.67-1.43-1.67h-27.14c-.79,0-1.43.75-1.43,1.67v16.67c0,.92.64,1.67,1.43,1.67Z"/>
        <path id="Table_L9A_2" class="cls-35" d="m20.99,299.55h27.14c.79,0,1.43-.75,1.43-1.67v-16.67c0-.92-.64-1.67-1.43-1.67h-27.14c-.79,0-1.43.75-1.43,1.67v16.67c0,.92.64,1.67,1.43,1.67Z"/>
        <path id="Table_L9A_1" class="cls-35" d="m20.99,265.16h27.14c.79,0,1.43-.75,1.43-1.67v-16.67c0-.92-.64-1.67-1.43-1.67h-27.14c-.79,0-1.43.75-1.43,1.67v16.67c0,.92.64,1.67,1.43,1.67Z"/>
        <path id="Table_L10A_1" class="cls-35" d="m21.46,230.78h36.19c1.05,0,1.9-.75,1.9-1.67v-16.67c0-.92-.85-1.67-1.9-1.67H21.46c-1.05,0-1.9.75-1.9,1.67v16.67c0,.92.85,1.67,1.9,1.67Z"/>
        <path id="Table_L11A_3" class="cls-35" d="m21.46,196.4h36.19c1.05,0,1.9-.75,1.9-1.67v-16.67c0-.92-.85-1.67-1.9-1.67H21.46c-1.05,0-1.9.75-1.9,1.67v16.67c0,.92.85,1.67,1.9,1.67Z"/>
        <circle id="Table_L11A_2" class="cls-35" cx="42" cy="143.75" r="17.5"/>
        <path id="Table_L11A_1" class="cls-35" d="m86.37,121.91v27.14c0,.79.75,1.43,1.67,1.43h16.67c.92,0,1.67-.64,1.67-1.43v-27.14c0-.79-.75-1.43-1.67-1.43h-16.67c-.92,0-1.67.64-1.67,1.43Z"/>
      </g>
      <g id="tbl_LI">
        <path id="Table_L12I_1" class="cls-35" d="m180.55,179.84v27.14c0,.79.75,1.43,1.67,1.43h16.67c.92,0,1.67-.64,1.67-1.43v-27.14c0-.79-.75-1.43-1.67-1.43h-16.67c-.92,0-1.67.64-1.67,1.43Z"/>
        <path id="Table_L1I_1" class="cls-35" d="m224.16,184.53l-10.39,25.08c-.3.73.14,1.61.99,1.96l15.4,6.38c.85.35,1.78.05,2.09-.68l10.39-25.08c.3-.73-.14-1.61-.99-1.96l-15.4-6.38c-.85-.35-1.78-.05-2.09.68Z"/>
        <path id="Table_L2I_2" class="cls-35" d="m262.65,205.56l-19.19,19.19c-.56.56-.48,1.54.17,2.19l11.79,11.79c.65.65,1.63.73,2.19.17l19.19-19.19c.56-.56.48-1.54-.17-2.19l-11.79-11.79c-.65-.65-1.63-.73-2.19-.17Z"/>
        <path id="Table_L2I_1" class="cls-35" d="m290.17,239.71l-25.08,10.39c-.73.3-1.03,1.24-.68,2.09l6.38,15.4c.35.85,1.23,1.3,1.96.99l25.08-10.39c.73-.3,1.03-1.24.68-2.09l-6.38-15.4c-.35-.85-1.23-1.3-1.96-.99Z"/>
        <path id="Table_L3I_1" class="cls-35" d="m302.52,281.79h-27.14c-.79,0-1.43.75-1.43,1.67v16.67c0,.92.64,1.67,1.43,1.67h27.14c.79,0,1.43-.75,1.43-1.67v-16.67c0-.92-.64-1.67-1.43-1.67Z"/>
        <path id="Table_L4I_2" class="cls-35" d="m297.82,325.4l-25.08-10.39c-.73-.3-1.61.14-1.96.99l-6.38,15.4c-.35.85-.05,1.78.68,2.09l25.08,10.39c.73.3,1.61-.14,1.96-.99l6.38-15.4c.35-.85.05-1.78-.68-2.09Z"/>
        <path id="Table_L4I_1" class="cls-35" d="m276.8,363.89l-19.19-19.19c-.56-.56-1.54-.48-2.19.17l-11.79,11.79c-.65.65-.73,1.63-.17,2.19l19.19,19.19c.56.56,1.54.48,2.19-.17l11.79-11.79c.65-.65.73-1.63.17-2.19Z"/>
        <path id="Table_L5I_1" class="cls-35" d="m242.65,391.41l-10.39-25.08c-.3-.73-1.24-1.03-2.09-.68l-15.4,6.38c-.85.35-1.3,1.23-.99,1.96l10.39,25.08c.3.73,1.24,1.03,2.09.68l15.4-6.38c.85-.35,1.3-1.23.99-1.96Z"/>
        <path id="Table_L6I_1" class="cls-35" d="m200.56,403.76v-27.14c0-.79-.75-1.43-1.67-1.43h-16.67c-.92,0-1.67.64-1.67,1.43v27.14c0,.79.75,1.43,1.67,1.43h16.67c.92,0,1.67-.64,1.67-1.43Z"/>
        <path id="Table_L7I_2" class="cls-35" d="m156.95,399.07l10.39-25.08c.3-.73-.14-1.61-.99-1.96l-15.4-6.38c-.85-.35-1.78-.05-2.09.68l-10.39,25.08c-.3.73.14,1.61.99,1.96l15.4,6.38c.85.35,1.78.05,2.09-.68Z"/>
        <path id="Table_L8I_1" class="cls-35" d="m118.46,378.04l19.19-19.19c.56-.56.48-1.54-.17-2.19l-11.79-11.79c-.65-.65-1.63-.73-2.19-.17l-19.19,19.19c-.56.56-.48,1.54.17,2.19l11.79,11.79c.65.65,1.63.73,2.19.17Z"/>
        <path id="Table_L8I_2" class="cls-35" d="m90.95,343.89l25.08-10.39c.73-.3,1.03-1.24.68-2.09l-6.38-15.4c-.35-.85-1.23-1.3-1.96-.99l-25.08,10.39c-.73.3-1.03,1.24-.68,2.09l6.38,15.4c.35.85,1.23,1.3,1.96.99Z"/>
        <path id="Table_L9I_1" class="cls-35" d="m78.6,301.8h27.14c.79,0,1.43-.75,1.43-1.67v-16.67c0-.92-.64-1.67-1.43-1.67h-27.14c-.79,0-1.43.75-1.43,1.67v16.67c0,.92.64,1.67,1.43,1.67Z"/>
        <path id="Table_L9I_2" class="cls-35" d="m83.29,258.2l25.08,10.39c.73.3,1.61-.14,1.96-.99l6.38-15.4c.35-.85.05-1.78-.68-2.09l-25.08-10.39c-.73-.3-1.61.14-1.96.99l-6.38,15.4c-.35.85-.05,1.78.68,2.09Z"/>
        <path id="Table_L10I_1" class="cls-35" d="m104.31,219.71l19.19,19.19c.56.56,1.54.48,2.19-.17l11.79-11.79c.65-.65.73-1.63.17-2.19l-19.19-19.19c-.56-.56-1.54-.48-2.19.17l-11.79,11.79c-.65.65-.73,1.63-.17,2.19Z"/>
        <path id="Table_L11I_1" class="cls-35" d="m138.47,192.19l10.39,25.08c.3.73,1.24,1.03,2.09.68l15.4-6.38c.85-.35,1.3-1.23.99-1.96l-10.39-25.08c-.3-.73-1.24-1.03-2.09-.68l-15.4,6.38c-.85.35-1.3,1.23-.99,1.96Z"/>
      </g>
    </g>
  </g>
  <g>
    <rect class="cls-39" x="234.84" y="122.97" width="130.52" height="27.51" rx="5.17" ry="5.17"/>
    <path class="cls-35" d="m360.19,122.97h-5c-.28,0-.5.22-.5.5s.22.5.5.5h5c.28,0,.5-.22.5-.5s-.22-.5-.5-.5h0Zm-11,0h-5c-.28,0-.5.22-.5.5s.22.5.5.5h5c.28,0,.5-.22.5-.5s-.22-.5-.5-.5h0Zm-11,0h-5c-.28,0-.5.22-.5.5s.22.5.5.5h5c.28,0,.5-.22.5-.5s-.22-.5-.5-.5h0Zm-11,0h-5c-.28,0-.5.22-.5.5s.22.5.5.5h5c.28,0,.5-.22.5-.5s-.22-.5-.5-.5h0Zm-11,0h-5c-.28,0-.5.22-.5.5s.22.5.5.5h5c.28,0,.5-.22.5-.5s-.22-.5-.5-.5h0Zm-11,0h-5c-.28,0-.5.22-.5.5s.22.5.5.5h5c.28,0,.5-.22.5-.5s-.22-.5-.5-.5h0Zm-11,0h-5c-.28,0-.5.22-.5.5s.22.5.5.5h5c.28,0,.5-.22.5-.5s-.22-.5-.5-.5h0Zm-11,0h-5c-.28,0-.5.22-.5.5s.22.5.5.5h5c.28,0,.5-.22.5-.5s-.22-.5-.5-.5h0Zm-11,0h-5c-.28,0-.5.22-.5.5s.22.5.5.5h5c.28,0,.5-.22.5-.5s-.22-.5-.5-.5h0Zm-11,0h-5c-.28,0-.5.22-.5.5s.22.5.5.5h5c.28,0,.5-.22.5-.5s-.22-.5-.5-.5h0Zm-11,0h-5c-.28,0-.5.22-.5.5s.22.5.5.5h5c.28,0,.5-.22.5-.5s-.22-.5-.5-.5h0Zm-10.92.06s-.05,0-.08,0c-.9.15-1.72.52-2.4,1.07h0s-.01.01-.02.02h0s0,0-.01,0h0s-.01.01-.02.02h0s-.01.01-.02.02c0,0,0,0,0,0,0,0,0,0-.01,0,0,0,0,0,0,0,0,0,0,0-.01,0,0,0,0,0,0,0,0,0,0,0,0,0,0,0,0,0,0,0,0,0,0,0-.01,0,0,0,0,0,0,0,0,0,0,0,0,0,0,0,0,0,0,0,0,0,0,0,0,0,0,0,0,0,0,0,0,0,0,0,0,0,0,0,0,0,0,0,0,0,0,0,0,0,0,0,0,0,0,0,0,0,0,0,0,0,0,0,0,0,0,0,0,0,0,0,0,0,0,0,0,0,0,0,0,0,0,0,0,0,0,0,0,0,0,0,0,0,0,0,0,0,0,0,0,0,0,0,0,0,0,0,0,0,0,0,0,0,0,0,0,0,0,0,0,0,0,0,0,0,0,0,0,0,0,0,0,0,0,0,0,0,0,0,0,0,0,0,0,0,0,0,0,0,0,0,0,0,0,0,0,0,0,0,0,0,0,0,0,0,0,0,0,0,0,0,0,0,0,0,0,0,0,0,0,0,0,0,0,0,0,0,0,0,0,0,0,0,0,0,0,0,0,0,0,0,0,0,0,0,0,0,0,0,0,0,0,0,0,0,0,0,0,0,0,0,0,0,0,0,0,0,0,0,0,0,0,0,0,0,0,0,0,0,0,0,0,0,0,0,0,0,0,0,0,0,0,0,0,0,0,0,0,0,0,0,0,0,0,0,0,0,0,0,0,0,0,0,0,0,0,0,0,0,0,0,0,0,0,0,0,0,0,0,0,0,0,0,0,0,0,0,0,0,0,0,0,0,0,0,0,0,0,0,0,0,0,0,0,0,0,0,0,0,0,0,0,0,0,0,0,0,0,0,0,0,0,0,0,0,0,0,0,0,0,0,0,0,0,0,0,0,0,0,0,0,0,0,0,0,0,0,0,0,0,0,0,0,0,0,0,0,0,0,0,0,0,0,0,0,0,0,0,0,0,0,0,0,0,0,0,0,0,0,0,0,0,0,0,0,0,0,0,0,0,0,0,0,0,0,0,0,0,0,0,0,0,0,0,0,0,0,0,0,0,0,0,0,0,0,0,0,0,0,0,0,0,0,0,0,0,0,0,0,0,0,0,0,0,0,0,0,0,0,0,0,0,0,0,0,0,0,0,0,0,0,0,0,0,0,0,0,0,0,0,0,0,0,0,0,0,0,0,0,0,0,0,0,0,0,0,0,0,0,0,0,0,0,0,0,0,0,0,0,0,0,0,0,0,0,0,0,0,0,0,0,0,0,0,0,0,0,0,0,0,0,0,0,0,0,0,0,0,0,0,0,0,0,0,0,0,0,0,0,0,0,0,0,0,0,0,0,0,0,0,0,0,0,0,0,0,0,0,0,0,0,0,0,0,0,0,0,0,0,0,0,0,0,0,0,0,0,0,0,0,0,0,0,0,0,0,0,0,0,0,0,0,0,0,0,0,0,0,0,0,0,0,0,0,0,0,0,0,0,0,0,0,0,0,0,0,0,0,0,0,0,0,0,0,0,0,0,0,0,0,0,0,0,0,0,0,0,0,0,0,0-.01,0,0,0,0,0,0,0,0,0,0,0,0,0,0,0,0,0,0,0,0,0,0,0,0,0,0,0,0,0,0,0,0,0,0,0,0,0,0,0,0,0,0,0,0,0,0,0-.01.01,0,0,0,0,0,0,0,0,0,0,0,0,0,0,0,0,0,0,0,0,0,0,0,0h0s0,0,0,0c0,0,0,0,0,0,0,0,0,0-.01.01,0,0,0,0,0,0,0,0,0,0,0,0h0s0,0-.01.01c0,0,0,0,0,0,0,0,0,0-.01.01h0s0,0,0,0c0,0,0,0,0,0,0,0,0,0-.01.01,0,0,0,0,0,0-.38.4-.69.85-.93,1.35-.12.25-.01.55.24.67.07.03.14.05.22.05.19,0,.37-.1.45-.28.59-1.24,1.75-2.12,3.1-2.33.27-.04.46-.3.41-.57-.04-.25-.25-.42-.49-.42h0Zm-3.93,8.32c-.28,0-.5.22-.5.5v5c0,.28.22.5.5.5s.5-.22.5-.5v-5c0-.28-.22-.5-.5-.5h0Zm0,11c-.28,0-.5.22-.5.5v2.45h0s0,0,0,0h0s0,0,0,0h0s0,0,0,0h0s0,0,0,0c0,0,0,0,0,0,0,0,0,0,0,0h0s0,0,0,0c0,0,0,0,0,0,0,0,0,0,0,0,0,0,0,0,0,0,0,0,0,0,0,0,0,0,0,0,0,0,0,0,0,0,0,0,0,0,0,0,0,0,0,0,0,0,0,0h0s0,0,0,0c0,0,0,0,0,0,0,0,0,0,0,0,0,0,0,0,0,0,0,0,0,0,0,0,0,0,0,0,0,0,0,0,0,0,0,0,0,0,0,0,0,0,0,0,0,0,0,0,0,0,0,0,0,0,0,0,0,0,0,0,0,0,0,0,0,0,0,0,0,0,0,0,0,0,0,0,0,0,0,0,0,.01,0,.02,0,0,0,0,0,0,0,0,0,0,0,0,0,0,0,0,0,0,0,0,0,0,0,0,0,0,0,0,0,0,0,0,0,0,0,0,0,0,0,0,0,0,0,0,0,0,0,0,0,0,0,0,0,0,0,0,0,0,0,0,0,0,0,0,0,0,0,0,0,0,0,0,0,0,0,0,0,0,0,0,0,.01,0,.02,0,0,0,0,0,0,0,0,0,0,0,0,0,0,0,0,0,0,0,0,0,0,0,0,0,0,0,0,0,0,0,0,0,0,0,0,0,0,0,0,0,0,0,0,0,.01,0,.02,0,0,0,0,0,0,0,0,0,0,0,0,0,0,0,0,0,0,0,0,0,0,0,0,0,0,0,0,0,0,0,0,0,0,0,0,0,0,0,0,0,0,0,0,0,.01,0,.02,0,0,0,0,0,0,0,0,0,0,0,0,0,0,0,0,0,0,0,0,0,.01,0,.02,0,0,0,0,0,0,0,0,0,.01,0,.02,0,0,0,0,0,0,0,0,0,0,0,0,0,0,0,0,0,0,0,0,0,.01,0,.02,0,0,0,0,0,0,0,0,0,0,0,0,0,0,0,0,0,0,0,0,0,0,0,0,0,0,0,0,0,0,0,0,0,0,0,0,0,0,0,0,0,0,0,0,0,.01,0,.02,0,0,0,0,0,0,0,0,0,0,0,0,0,0,0,0,0,0,0,0,0,.01,0,.02,0,0,0,0,0,0,0,0,0,.01,0,.02,0,0,0,0,0,0,0,0,0,0,0,0,0,0,0,0,0,0,0,0,0,.01,0,.02,0,0,0,0,0,0,0,0,0,.01,0,.02,0,0,0,0,0,0,0,0,0,0,0,0,0,0,0,0,0,0,0,0,0,.01,0,.02,0,0,0,0,0,0,0,0,0,0,0,0,0,0,0,0,0,0,0,0,0,.01,0,.02,0,0,0,0,0,0,0,0,0,.01,0,.02h0c.07.68.28,1.31.59,1.89.09.17.26.26.44.26.08,0,.16-.02.24-.06.24-.13.33-.43.2-.68-.33-.6-.5-1.28-.5-1.97v-2.45c0-.28-.22-.5-.5-.5h0Zm10.1,7.13h-5c-.28,0-.5.22-.5.5s.22.5.5.5h5c.28,0,.5-.22.5-.5s-.22-.5-.5-.5h0Zm11,0h-5c-.28,0-.5.22-.5.5s.22.5.5.5h5c.28,0,.5-.22.5-.5s-.22-.5-.5-.5h0Zm11,0h-5c-.28,0-.5.22-.5.5s.22.5.5.5h5c.28,0,.5-.22.5-.5s-.22-.5-.5-.5h0Zm11,0h-5c-.28,0-.5.22-.5.5s.22.5.5.5h5c.28,0,.5-.22.5-.5s-.22-.5-.5-.5h0Zm11,0h-5c-.28,0-.5.22-.5.5s.22.5.5.5h5c.28,0,.5-.22.5-.5s-.22-.5-.5-.5h0Zm11,0h-5c-.28,0-.5.22-.5.5s.22.5.5.5h5c.28,0,.5-.22.5-.5s-.22-.5-.5-.5h0Zm11,0h-5c-.28,0-.5.22-.5.5s.22.5.5.5h5c.28,0,.5-.22.5-.5s-.22-.5-.5-.5h0Zm11,0h-5c-.28,0-.5.22-.5.5s.22.5.5.5h5c.28,0,.5-.22.5-.5s-.22-.5-.5-.5h0Zm11,0h-5c-.28,0-.5.22-.5.5s.22.5.5.5h5c.28,0,.5-.22.5-.5s-.22-.5-.5-.5h0Zm11,0h-5c-.28,0-.5.22-.5.5s.22.5.5.5h5c.28,0,.5-.22.5-.5s-.22-.5-.5-.5h0Zm11,0h-5c-.28,0-.5.22-.5.5s.22.5.5.5h5c.28,0,.5-.22.5-.5s-.22-.5-.5-.5h0Zm9.12-3.02c-.2,0-.39.12-.47.32-.49,1.28-1.58,2.25-2.9,2.58-.27.07-.43.34-.36.61.06.23.26.38.48.38.04,0,.08,0,.12-.01,0,0,0,0,0,0,0,0,0,0,0,0,0,0,0,0,0,0,0,0,0,0,0,0,0,0,0,0,0,0,0,0,0,0,0,0,0,0,0,0,0,0,0,0,0,0,0,0,0,0,0,0,0,0,0,0,0,0,0,0,0,0,0,0,0,0,0,0,0,0,0,0,0,0,0,0,0,0,0,0,0,0,0,0,0,0,0,0,0,0,0,0,0,0,0,0,0,0,0,0,0,0,0,0,0,0,0,0,0,0,0,0,0,0,0,0,0,0,0,0,0,0,0,0,0,0,0,0,0,0,0,0,0,0,0,0,0,0,0,0,0,0,0,0,0,0,0,0,0,0,0,0,0,0,0,0,0,0,0,0,0,0,0,0,0,0,0,0,0,0,0,0,0,0,0,0,0,0,0,0,0,0,0,0,0,0,0,0,0,0,0,0,0,0,0,0,0,0,0,0,0,0,0,0,0,0,0,0,0,0,0,0,0,0,0,0,0,0,0,0,0,0,0,0,0,0,0,0,0,0,0,0,0,0,0,0,0,0,0,0,0,0,0,0,0,0,0,0,0,0,0,0,0,0,0,0,0,0,0,0,0,0,0,0,0,0,0,0,0,0,0,0,0,0,.01,0,0,0,0,0,0,0,0,0,0,0,0,0,0,0,0,0,0,0,0,0,0,0,0,0,0,0,0,0,0,0,0,0,0,0,0,0,0,0,0,0,0,0,0,0,0,0,.01,0,0,0,0,0,0,0,0,0,0,0,0,0,0,0,0,0,0,0,0,0,0,0,0,0,0,0,0,0,0,0,0,0,0,0,0,0,0,0,0,0,0,0,0,0,0,0,.01,0,0,0,0,0,0,0,0,0,0,0,0,0,0,0,0,0,0,0,0,0,0,0,0,0,0,0,0,0,0,0,0,0,0,0,0,0,0,0,0,0,0,0,0,0,0,0,.01,0,0,0,0,0,0,0,0,0,0,0,0,0,0,0,0,0,0,0,0,0,0,0,0,0,0,0,0,0,0,0,0,0,0,0,0,0,0,0,0,0,0,0,0,0,0,0,.01,0,0,0,0,0,0,0,0,0,0,0,0,0,0,0,0,0,0,0,0,0,0,0,.01,0,0,0,0,0,0,0,0,0,0,0,.01,0,0,0,0,0,0,0,0,0,0,0,0,0,0,0,0,0,0,0,0,0,0,0,.01,0,0,0,0,0,0,0,0,0,0,0,.01,0h0s0,0,0,0c0,0,0,0,0,0,0,0,0,0,.01,0,0,0,0,0,0,0,0,0,0,0,.01,0,0,0,0,0,0,0,0,0,0,0,0,0,0,0,0,0,0,0,0,0,0,0,.01,0,0,0,0,0,0,0,0,0,0,0,.01,0,0,0,0,0,0,0,0,0,0,0,0,0,0,0,0,0,0,0,0,0,0,0,.01,0,0,0,0,0,0,0,0,0,0,0,.01,0h0s0,0,0,0c0,0,0,0,0,0,0,0,0,0,.01,0,0,0,0,0,0,0,0,0,0,0,.01,0,0,0,0,0,0,0,0,0,0,0,0,0,0,0,0,0,0,0,0,0,0,0,.01,0,0,0,0,0,0,0,0,0,0,0,.01,0,0,0,0,0,0,0,0,0,0,0,0,0,0,0,0,0,0,0,0,0,0,0,.01,0,0,0,0,0,0,0,0,0,0,0,0,0h0s0,0,0,0c0,0,0,0,0,0,0,0,0,0,0,0,0,0,0,0,0,0,0,0,0,0,.01,0,0,0,0,0,0,0,0,0,0,0,.01,0h0s0,0,0,0c0,0,0,0,0,0,0,0,0,0,.01,0h0s.01,0,.02,0c0,0,0,0,0,0,0,0,0,0,.01,0,0,0,0,0,0,0,0,0,.01,0,.02,0,0,0,0,0,0,0,.01,0,.02-.01.04-.02,0,0,0,0,0,0,0,0,0,0,.01,0,0,0,0,0,0,0,0,0,.01,0,.02,0,0,0,0,0,0,0,0,0,0,0,.01,0,0,0,0,0,0,0,0,0,0,0,0,0,0,0,0,0,0,0,0,0,0,0,.01,0,0,0,0,0,0,0,0,0,0,0,.01,0,0,0,0,0,0,0,0,0,0,0,0,0h0s0,0,.01,0c0,0,0,0,0,0,0,0,0,0,0,0h0s0,0,0,0c0,0,0,0,0,0,0,0,0,0,0,0,0,0,0,0,0,0,0,0,0,0,0,0,0,0,0,0,0,0,0,0,0,0,0,0,0,0,0,0,0,0,0,0,0,0,.01,0,0,0,0,0,0,0,0,0,0,0,0,0,0,0,0,0,0,0,0,0,0,0,.01,0,0,0,0,0,0,0,0,0,0,0,.01,0h0s0,0,0,0c0,0,0,0,0,0,0,0,0,0,.01,0,0,0,0,0,0,0,0,0,0,0,.01,0,0,0,0,0,0,0,0,0,0,0,0,0,0,0,0,0,0,0,0,0,0,0,.01,0,0,0,0,0,0,0,0,0,0,0,0,0,0,0,0,0,0,0,0,0,0,0,0,0,0,0,0,0,0,0,0,0,0,0,0,0,0,0,0,0,0,0,0,0,0,0,0,0t0,0s0,0,0,0c0,0,0,0,0,0,0,0,0,0,0,0,0,0,0,0,0,0,0,0,0,0,0,0,0,0,0,0,0,0,0,0,0,0,0,0,0,0,0,0,0,0,0,0,0,0,.01,0,0,0,0,0,0,0,0,0,0,0,0,0,0,0,0,0,0,0,0,0,0,0,0,0,0,0,0,0,0,0,0,0,0,0,0,0,0,0,0,0,0,0,0,0,0,0,.01,0,0,0,0,0,0,0,0,0,0,0,0,0,0,0,0,0,0,0,0,0,0,0,0,0,0,0,0,0,0,0,0,0,0,0,0,0,0,0,0,0,0,0,0,0,0,0,0,0,0,0,0,0,0,0,0,0,0,0,0,0,0,0,0,0,0,0,0,0,0,0,0,0,0,0,0,0,0,0,0,0,0,0,0,0,0,0,0,0,0,0,0,0,0,0,0,0,0,0,0,0,0,0,0,0,0,0,.01,0,0,0,0,0,0,0,0,0,0,0,0,0,0,0,0,0,0,0,0,0,0,0,0,0,0,0,0,0,0,0,0,0,0,0,0,0,0,0,0,0,0,0,0,0,0,0,0,0,0,0,0,0,0,0,0,0,0,0,0,0,0,0,0,0,0,0,0,0,0,0,0,0,0,0,0,0,0,0,0,0,0,0,0,0,0,0,0,0,0,0,0,0,0,0,0,0,0,0,0,0,0,0,0,0,0,0,0,0,0,0,0,0,0,0,0,0,0,0,0,0,0,0,0,0,0,0,0,0,0,0,0,0,0,0,0,0,0,0,0,0,0,0,0,0,0,0,0,0,0,0,0,0,0,0,0,0,0,0,0,0,0,0,0,0,0,0,0,0,0,0,0,0,0,0,0,0,0,0,0,0,0,0,0,0,0,0,0,0,0,0,0,0,0,0,0,0,0,0,0,0,0,0,0,0,0,0,0,0,0,0,0,0,0,0,0,0,0,0,0,0,0,0,0,0,0,0,0,0,0,0,0,0,0,0,0,0,0,0,0,0,0,0,0,0,0,0,0,0,0,0,0,0,0,0,0,0,0,0,0,0,0,0,0,0,0,0,0,0,0,0,0,0,0,0,0,0,0,0,0,0,0,0,0,0,0,0,0,0,0,0,0,0,0,0,0,0,0,0,0,0,0,0,0,0,0,0,0,0,0,0,0,0,0,0,0,0,0,0,0,0,0,0,0,0,0,0,0,0,0,0,0,0,0,0,0,0,0,0,0,0,0,0,0,0,0,0,0,0,0,0,0,0,0,0,0,0,0,0,0,0,0,0,0,0,0,0,0,0,0,0,0,0,0,0,0,0,0,0,0,0,0,0,0,0,0,0,0,0,0,0,0,0,0,0,0,0,0,0,0,0,0,0,0,0,0,0,0,0,0,0,0,0,0,0,0,0,0,0,0,0,0,0,0,0,0,0,0,0,0,0,0,0,0,0,0,0,0,0,0,0,0,0,0,0,0,0,0,0,0,0,0,0,0,0,0,0,0,0,0,0,0,0,0,0,0,0,0,0,0,0,0,0,0,0,0,0,0,0,0,0,0,0,0,0,0,0,0,0,0,0,0,0,0,0,0,0,0,0,0,0,0,0,0,0,0,0,0,0,0,0,0,0,0,0,0,0,0,0,0,0,0,0,0,0,0,0,0,0,0,0,0,0,0,0,0,0,0,0,0,0,0,0,0,0,0,0,0,0,0,0,0,0,0,0,0,0,0,0,0,0,0,0,0,0,0,0,0,0,0,0,0,0,0,0,0,0,0,0,0,0,0,0,0,0,0,0,0,0,0,0,0,0,0,0,0,0,0,0,0,0,0,0,0,0,0,0,0,0,0,0,0,0,0,0,0,0,0,0,0,0,0,0,0,0,0,0,0,0,0,0,0,0,0,0,0,0,0,0,0,0,0,0,0,0,0,0,0,0,0,0,0,0,0,0,0,0,0,0,0,0,0,0,0,0,0,0,0,0,0,0,0,0,0,0,0,0,0,0,0,0,0,0,0,0,0,0,0,0,0,0,0,0,0,0,0,0,0,0,0,0,0,0,0,0,0,0,0,0,0,0,0,0,0,0,0,0,0,0,0,0,0,0,0,0,0,0,0,0,0,0,0,0,0,0,0,0,0,0,0,0,0,0,0,0,0,0,0,0,0,0,0,0,0,0,0,0,0,0,0,0,0,0,0,0,0,0,0,0,0,0,0,0,0,0,0,0,0,0,0,0,0,0,0,0,0,0,0,0,0,0,0,0,0,0,0,0,0,0,0,0,0,0,0,0,0,0,0,0,0,0,0,0,0,0,0,0,0,0,0,0,0,0,0,0,0,0,0,0,0,0,0,0,0,0,0,0,0,0,0,0,0,0,0,0,0,0,0,0,0,0,0,0,0,0,0,0,0,0,0,0,0,0,0,0,0,0,0,0,0,0,0,0,0,0,0,0,0,0,0,0,0,0,0,0,0,0,0,0,0,0,0,0,0,0,0,0,0,0,0,0,0,0,0,0,0,0,0,0,0,0,0,0,0,0,0,0,0,0,0,0,0,0,0,0,0,0,0,0,0,0,0,0,0,0,0,0,0,0,0,0,0,0,0,0,0,0,0,0,0,0,0,0,0,0,0,0,0,0,0,0,0,0,0,0,0,0,0,0,0,0,0,0,0,0,0,0,0,0,0,0,0,0,0,0,0,0,0,0,0,0,0,0,0,0,0,0,0,0,0,0,0,0,0,0,0,0,0,0,0,0,0,0,0,0,0,0,0,0,0,0,0,0,0,0,0,0,0,0,0,0,0,0,0,0,0,0,0,0,0,0,0,0,0,0,0,0,0,0,0,0,0,0,0,0,0,0,0,0,0,0,0,0,0,0,0,0,0,0,0,0,0,0,0,0,0,0,0,0,0,0,0,0,0,0,0,0,0,0,0,0,0,0,0,0,0,0,0,0,0,0,0,0,0,0,0,0,0,0,0,0,0,0,0,0,0,0,0,0,0,0,0,0,0,0,0,0,0,0,0,0,0,0,0,0,0,0,0,0,0,0,0,0,0,0,0,0,0,0,0,0,0,0,0,0,0,0,0,0,0,0,0,0,0,0,0,0,0,0,0,0,0,0,0,0,0,0,0,0,0,0,0,0h0s0,0,0,0c0,0,0,0,0,0,0,0,0,0,0,0,0,0,0,0,0,0,0,0,0,0,0,0,0,0,0,0,0,0,0,0,0,0,0,0,0,0,0,0,0,0,0,0,0,0,.01,0,0,0,0,0,0,0,0,0,0,0,0,0,0,0,0,0,0,0,0,0,0,0,0,0,0,0,0,0,0,0,0,0,0,0,0,0,0,0,0,0,0,0,0,0,0,0,.01,0,0,0,0,0,0,0,0,0,0,0,0,0,0,0,0,0,0,0,0,0,0,0,0,0,0,0,0,0,0,0,0,0,0,0,0,0,0,0,0,0,0,0,0,0,0,0,.01,0,0,0,0,0,0,0,0,0,0,0,0,0h0s0,0,.01,0c0,0,0,0,0,0,0,0,0,0,.01,0,0,0,0,0,0,0,0,0,0,0,0,0,0,0,0,0,0,0,0,0,0,0,0,0,0,0,0,0,0,0,0,0,0,0,0,0,0,0,0,0,0,0,0,0,.01,0,.02-.01,0,0,0,0,0,0,0,0,0,0,.01,0,0,0,0,0,0,0,0,0,0,0,.01,0,0,0,0,0,0,0,0,0,0,0,0,0,0,0,0,0,0,0,0,0,0,0,.01,0h0s.02-.02.03-.02c0,0,0,0,0,0,.36-.31.68-.66.95-1.06,0,0,0,0,0,0,0,0,0,0,0-.01,0,0,0,0,0,0,0,0,0-.01.01-.02,0,0,0,0,0,0,0,0,0,0,0-.01,0,0,0,0,0,0,0,0,0,0,0,0,0,0,0,0,0,0,0,0,0,0,0,0h0s0,0,0,0c0,0,0,0,0,0,0,0,0,0,0-.01,0,0,0,0,0,0,0,0,0,0,0,0,0,0,0,0,0,0,0,0,0,0,0,0,0,0,0,0,0,0,0,0,0,0,0,0,0,0,0,0,0,0,0,0,0,0,0,0,0,0,0,0,0,0,0,0,0,0,0,0,0,0,0,0,0,0,0,0,0,0,0,0,0,0,0,0,0,0,0,0,0,0,0,0,0,0,0,0,0,0,0,0,0,0,0,0,0,0,0,0,0,0,0,0,0,0,0,0,0,0,0,0,0,0,0,0,0,0,0,0,0,0,0,0,0,0,0,0,0,0,0,0h0s0,0,0,0c0,0,0,0,0,0,0,0,0,0,0,0,0,0,0,0,0,0,0,0,0,0,0,0,0,0,0,0,0,0,0,0,0,0,0,0,0,0,0,0,0,0,0,0,0,0,0,0,0,0,0,0,0,0,0,0,0,0,0,0,0,0,0,0,0,0,0,0,0,0,0,0,0,0,0,0,0,0,0,0,0,0,0,0,0,0,0,0,0,0,0,0,0,0,0,0,0,0,0,0,0,0,0,0,0,0,0,0,0,0,0,0,0,0,0,0,0,0,0,0,0,0,0,0,0,0,0,0,0,0,0,0,0,0,0,0,0,0,0,0,0,0,0,0,0,0,0,0,0,0,0,0,0,0,0,0,0,0,0,0,0,0,0,0,0,0,0,0,0,0,0,0,0,0,0,0,0,0,0,0,0,0,0,0,0,0,0,0,0,0,0,0,0,0,0,0,0,0,0,0,0,0,0,0,0,0,0,0,0,0,0,0,0,0,0,0,0,0,0,0,0,0,0,0,0,0,0,0,0,0,0,0,0,0,0,0,0,0,0,0,0,0,0,0,0,0,0,0,0,0,0,0,0,0,0,0,0,0,0,0,0,0,0,0,0,0,0,0,0,0,0,0,0,0,0,0,0,0,0,0,0,0,0,0,0,0,0,0,0,0,0,0,0,0,0,0,0,0,0,0,0,0,0,0,0,0,0,0,0,0,0,0,0,0,0,0,0,0,0,0,0,0,0,0,0,0,0,0,0,0,0,0,0,0,0,0,0,0,0,0,0,0,0,0,0,0,0,0,0,0,0,0,0,0,0,0,0,0,0,0,0,0,0,0,0,0,0,0,0,0,0,0,0,0,0,0,0,0,0,0,0,0,0,0,0,0,0,0,0,0,0,0,0,0,0,0,0,0,0,0,0,0,0,0,0,0,0,0,0,0,0,0,0,0,0,0,0,0,0,0,0,0,0,0,0,0,0,0,0,0,0,0,0,0,0,0,0,0,0,0,0,0,0,0,0,0,0,0,0,0,0,0,0,0,0,0,0,0,0,0,0,0,0,0,0,0,0,0,0,0,0,0,0,0,0,0,0,0,0,0,0,0,0,0,0,0,0,0,0,0,0,0,0,0,0,0,0,0h0s0,0,0,0c0,0,0,0,0,0,0,0,0,0,0,0,0,0,0,0,0,0,0,0,0,0,0,0,0,0,0,0,0,0,0,0,0,0,0,0,0,0,0,0,0,0,0,0,0,0,0-.01,0,0,0,0,0,0,0,0,0,0,0,0,0,0,0,0,0,0,0,0,0,0,0,0,0,0,0,0,0,0,0,0,0,0,0,0,0,0,0,0,0,0,0,0,0,0,0-.01,0,0,0,0,0,0,0-.01.01-.02.02-.03h0c.08-.17.16-.34.23-.51.1-.26-.03-.55-.29-.65-.06-.02-.12-.03-.18-.03h0Zm.3-10.78c-.28,0-.5.22-.5.5v5c0,.28.22.5.5.5s.5-.22.5-.5v-5c0-.28-.22-.5-.5-.5h0Zm-.75-10.57c-.09,0-.19.03-.27.08-.23.15-.3.46-.15.69.44.68.67,1.46.67,2.26v2.03c0,.28.22.5.5.5s.5-.22.5-.5v-2.03h0s0-.01,0-.02h0s0,0,0,0h0s0,0,0,0c0,0,0,0,0,0,0,0,0,0,0,0h0s0,0,0,0h0s0,0,0,0c0,0,0,0,0,0,0,0,0,0,0,0h0s0,0,0,0c0,0,0,0,0,0,0,0,0,0,0,0,0,0,0,0,0,0,0,0,0,0,0,0,0,0,0,0,0,0,0,0,0,0,0,0,0,0,0,0,0,0,0,0,0,0,0,0,0,0,0,0,0,0,0,0,0,0,0,0,0,0,0,0,0,0,0,0,0,0,0,0,0,0,0,0,0,0,0,0,0,0,0,0,0,0,0,0,0,0,0,0,0,0,0,0,0,0,0,0,0,0,0,0,0,0,0,0,0,0,0,0,0,0,0,0,0,0,0,0,0,0,0,0,0,0,0,0,0,0,0,0,0,0,0,0,0,0,0,0,0,0,0,0,0,0,0,0,0,0,0,0,0,0,0,0,0,0,0,0,0,0,0,0,0,0,0,0,0,0,0,0,0,0,0,0,0,0,0,0,0,0,0,0,0,0,0,0,0,0,0,0,0,0,0,0,0,0,0,0,0,0,0,0,0,0,0,0,0,0,0,0,0,0,0,0,0,0,0,0,0,0,0,0,0,0,0,0,0,0,0,0,0,0,0,0,0,0,0,0,0,0,0,0,0,0,0,0,0,0,0,0,0,0,0,0,0,0,0,0,0,0,0,0,0,0,0,0,0,0,0,0,0,0,0,0,0,0,0,0,0,0,0,0,0,0,0,0,0,0,0,0,0,0,0,0,0,0,0,0,0,0,0,0,0,0,0,0,0,0,0,0,0,0,0,0,0,0,0,0,0,0,0,0,0,0,0,0,0,0,0,0,0,0,0,0,0,0,0,0,0,0,0,0,0,0,0,0,0,0,0,0,0,0,0,0,0,0,0,0,0,0,0,0,0,0,0,0,0,0,0,0,0,0,0,0,0,0,0,0,0,0,0,0,0,0,0,0,0,0,0,0,0,0,0,0,0,0,0,0,0,0,0,0,0,0,0,0,0,0,0,0,0,0,0,0,0,0,0,0,0,0,0,0,0,0,0,0,0,0,0,0,0,0,0,0,0,0,0,0,0,0,0,0,0,0,0,0,0,0,0,0,0,0,0,0,0,0,0,0,0,0,0,0,0,0,0,0,0,0,0,0,0,0,0,0,0,0,0,0,0,0,0,0,0,0,0,0,0,0,0,0,0,0,0,0,0,0,0,0,0,0,0,0,0,0,0,0,0,0,0,0,0,0,0,0,0,0,0,0,0,0,0,0,0,0,0,0,0,0,0,0,0,0,0,0,0,0,0,0,0,0,0,0,0,0,0,0,0,0,0,0,0,0,0,0,0,0,0,0,0,0,0,0,0,0,0,0,0,0,0,0,0,0,0,0,0,0,0,0,0,0,0,0,0,0,0,0,0,0,0,0,0,0,0,0,0,0,0,0,0,0,0,0,0,0,0,0,0,0,0,0,0,0,0,0,0,0,0,0,0,0,0,0,0,0,0,0,0,0,0,0,0,0,0,0,0,0,0,0,0,0,0,0,0,0,0,0,0,0,0,0,0,0,0,0,0,0,0,0,0,0,0,0,0,0,0,0,0,0,0,0,0,0,0,0,0,0,0,0,0,0,0,0,0,0,0,0,0,0,0,0,0,0,0,0,0,0,0,0,0,0,0,0,0,0,0,0,0,0,0,0,0,0,0,0,0,0,0,0,0,0,0,0,0,0,0,0,0,0,0,0,0,0,0,0,0,0,0,0,0,0,0,0,0,0,0,0,0,0,0,0,0,0,0,0,0,0,0,0,0,0,0,0,0,0,0,0,0,0,0,0,0,0,0,0,0,0,0,0,0,0,0,0,0,0,0,0,0,0,0,0,0,0,0,0,0,0,0,0,0,0,0,0,0,0,0,0,0,0,0,0,0,0,0,0,0,0,0,0,0,0,0,0,0,0,0,0,0,0,0,0,0,0,0,0,0,0,0,0,0,0,0,0,0-.01,0,0,0,0,0,0,0,0,0,0,0,0,0,0,0,0,0,0,0,0,0,0,0,0,0,0,0,0,0,0,0,0,0,0,0,0,0,0,0,0,0,0,0,0,0,0,0,0,0,0,0,0,0,0,0,0,0,0,0,0,0,0,0,0,0,0,0,0,0,0,0,0,0,0,0,0,0,0,0,0,0,0,0-.01,0,0,0,0,0,0,0,0,0,0,0,0,0,0,0,0,0,0,0,0,0,0,0,0,0,0,0,0,0,0,0,0,0,0,0,0,0,0,0,0,0,0,0,0,0-.01,0-.02,0,0,0,0,0,0,0,0,0,0,0,0,0,0,0,0,0,0,0,0,0-.01,0-.02,0,0,0,0,0,0,0,0,0,0,0,0,0,0,0,0,0,0,0,0,0,0,0-.01,0,0,0,0,0,0,0,0,0,0,0,0,0,0,0,0,0,0,0,0,0-.01,0-.02,0,0,0,0,0,0,0,0,0,0,0,0,0,0,0,0,0,0,0,0,0-.01,0-.02,0,0,0,0,0,0,0,0,0-.01,0-.02h0s0,0,0,0c0,0,0,0,0,0,0,0,0-.01,0-.02,0,0,0,0,0,0,0,0,0,0,0,0h0s0-.01,0-.02h0s0-.03,0-.04h0c-.1-.54-.29-1.05-.54-1.51h0s0-.01-.01-.02c0,0,0,0,0,0,0,0,0,0,0-.01,0,0,0,0,0,0,0,0,0,0,0,0,0,0,0,0,0,0,0,0,0,0,0-.01,0,0,0,0,0,0,0,0,0,0,0-.01h0s0,0,0,0c0,0,0,0,0,0,0,0,0,0,0-.01,0,0,0,0,0,0,0,0,0,0,0,0,0,0,0,0,0,0,0,0,0,0,0,0,0,0,0,0,0,0,0,0,0,0,0,0,0,0,0,0,0,0,0,0,0,0,0,0,0,0,0,0,0,0,0,0,0,0,0,0,0,0,0,0,0,0,0,0,0,0,0,0,0,0,0,0,0,0,0,0,0,0,0,0,0,0,0,0,0,0,0,0,0,0,0,0,0,0,0,0,0,0,0,0,0,0,0,0,0,0,0,0,0,0,0,0,0,0,0,0,0,0,0,0,0,0,0,0,0,0,0,0,0,0,0,0,0,0,0,0,0,0,0,0,0,0,0,0,0,0,0,0,0,0,0,0,0,0,0,0,0,0,0,0,0,0,0,0,0,0,0,0,0,0,0,0,0,0,0,0,0,0,0,0,0,0,0,0,0,0,0,0,0,0,0,0,0,0,0,0,0,0,0,0,0,0,0,0,0,0,0,0,0,0,0,0,0,0,0,0,0,0,0,0,0,0,0,0,0,0,0,0,0,0,0,0,0,0,0,0,0,0,0,0,0,0,0,0,0,0,0,0,0,0,0,0,0,0,0,0,0,0,0,0,0,0,0,0,0,0,0,0,0,0,0,0,0,0,0,0,0,0,0,0,0,0,0,0,0,0,0,0,0,0,0,0,0,0,0,0,0,0,0,0,0-.01,0,0,0,0,0,0,0,0,0,0,0,0,0,0,0,0,0,0,0,0,0,0,0-.01,0,0,0,0,0,0,0,0,0,0,0-.01,0,0,0,0,0,0,0,0,0,0,0,0,0,0,0,0,0,0,0,0,0,0,0-.01,0,0,0,0,0,0,0,0,0,0,0,0,0,0,0,0,0,0,0,0,0,0,0-.01-.1-.15-.26-.23-.42-.23h0Z"/>
  </g>
  <g>
    <rect class="cls-39" x="790.22" y="122.97" width="130.52" height="27.51" rx="5.17" ry="5.17"/>
    <path class="cls-35" d="m915.56,122.97h-5c-.28,0-.5.22-.5.5s.22.5.5.5h5c.28,0,.5-.22.5-.5s-.22-.5-.5-.5h0Zm-11,0h-5c-.28,0-.5.22-.5.5s.22.5.5.5h5c.28,0,.5-.22.5-.5s-.22-.5-.5-.5h0Zm-11,0h-5c-.28,0-.5.22-.5.5s.22.5.5.5h5c.28,0,.5-.22.5-.5s-.22-.5-.5-.5h0Zm-11,0h-5c-.28,0-.5.22-.5.5s.22.5.5.5h5c.28,0,.5-.22.5-.5s-.22-.5-.5-.5h0Zm-11,0h-5c-.28,0-.5.22-.5.5s.22.5.5.5h5c.28,0,.5-.22.5-.5s-.22-.5-.5-.5h0Zm-11,0h-5c-.28,0-.5.22-.5.5s.22.5.5.5h5c.28,0,.5-.22.5-.5s-.22-.5-.5-.5h0Zm-11,0h-5c-.28,0-.5.22-.5.5s.22.5.5.5h5c.28,0,.5-.22.5-.5s-.22-.5-.5-.5h0Zm-11,0h-5c-.28,0-.5.22-.5.5s.22.5.5.5h5c.28,0,.5-.22.5-.5s-.22-.5-.5-.5h0Zm-11,0h-5c-.28,0-.5.22-.5.5s.22.5.5.5h5c.28,0,.5-.22.5-.5s-.22-.5-.5-.5h0Zm-11,0h-5c-.28,0-.5.22-.5.5s.22.5.5.5h5c.28,0,.5-.22.5-.5s-.22-.5-.5-.5h0Zm-11,0h-5c-.28,0-.5.22-.5.5s.22.5.5.5h5c.28,0,.5-.22.5-.5s-.22-.5-.5-.5h0Zm-10.92.06s-.05,0-.08,0c-1.7.28-3.12,1.38-3.85,2.89-.12.25-.01.55.24.67.07.03.14.05.22.05.19,0,.37-.1.45-.28.59-1.24,1.75-2.12,3.1-2.33.27-.04.46-.3.41-.57-.04-.25-.25-.42-.49-.42h0Zm-3.93,8.32c-.28,0-.5.22-.5.5v5c0,.28.22.5.5.5s.5-.22.5-.5v-5c0-.28-.22-.5-.5-.5h0Zm0,11c-.28,0-.5.22-.5.5v2.45h0v.02h0s0,0,0,0h0s0,0,0,0h0s0,0,0,0h0s0,0,0,0h0s0,0,0,0h0s0,0,0,0h0s0,0,0,0h0s0,0,0,0h0s0,0,0,0h0s0,0,0,0c0,0,0,0,0,0,0,0,0,0,0,0h0s0,0,0,0c0,0,0,0,0,0,0,0,0,0,0,0,0,0,0,0,0,0,0,0,0,0,0,0,0,0,0,0,0,0,0,0,0,0,0,0,0,0,0,0,0,0,0,0,0,.01,0,.02h0s0,0,0,0c0,0,0,0,0,0,0,0,0,0,0,0h0s0,0,0,0c0,0,0,0,0,0,0,0,0,0,0,0,0,0,0,0,0,0,0,0,0,0,0,0,0,0,0,0,0,0,0,0,0,0,0,0h0s0,.01,0,.02h0s0,0,0,0h0s0,0,0,0h0s0,0,0,0c0,0,0,0,0,0,0,0,0,.01,0,.02,0,0,0,0,0,0,0,0,0,0,0,0h0s0,0,0,0h0s0,0,0,0c0,0,0,0,0,0,0,0,0,.01,0,.02,0,0,0,0,0,0,0,0,0,0,0,0h0s0,.01,0,.02c0,0,0,0,0,0,0,0,0,.01,0,.02,0,0,0,0,0,0,0,0,0,0,0,0,0,0,0,0,0,0,0,0,0,.01,0,.02,0,0,0,0,0,0,0,0,0,0,0,0h0s0,0,0,0h0s0,0,0,0c0,0,0,0,0,0,0,0,0,.01,0,.02,0,0,0,0,0,0,0,0,0,0,0,0h0s0,.01,0,.02c0,0,0,0,0,0,0,0,0,.01,0,.02,0,0,0,0,0,0,0,0,0,0,0,0,0,0,0,0,0,0,0,0,0,.01,0,.02,0,0,0,0,0,0,.07.71.27,1.37.6,1.97.09.17.26.26.44.26.08,0,.16-.02.24-.06.24-.13.33-.43.2-.68-.33-.6-.5-1.28-.5-1.97v-2.45c0-.28-.22-.5-.5-.5h0Zm10.1,7.13h-5c-.28,0-.5.22-.5.5s.22.5.5.5h5c.28,0,.5-.22.5-.5s-.22-.5-.5-.5h0Zm11,0h-5c-.28,0-.5.22-.5.5s.22.5.5.5h5c.28,0,.5-.22.5-.5s-.22-.5-.5-.5h0Zm11,0h-5c-.28,0-.5.22-.5.5s.22.5.5.5h5c.28,0,.5-.22.5-.5s-.22-.5-.5-.5h0Zm11,0h-5c-.28,0-.5.22-.5.5s.22.5.5.5h5c.28,0,.5-.22.5-.5s-.22-.5-.5-.5h0Zm11,0h-5c-.28,0-.5.22-.5.5s.22.5.5.5h5c.28,0,.5-.22.5-.5s-.22-.5-.5-.5h0Zm11,0h-5c-.28,0-.5.22-.5.5s.22.5.5.5h5c.28,0,.5-.22.5-.5s-.22-.5-.5-.5h0Zm11,0h-5c-.28,0-.5.22-.5.5s.22.5.5.5h5c.28,0,.5-.22.5-.5s-.22-.5-.5-.5h0Zm11,0h-5c-.28,0-.5.22-.5.5s.22.5.5.5h5c.28,0,.5-.22.5-.5s-.22-.5-.5-.5h0Zm11,0h-5c-.28,0-.5.22-.5.5s.22.5.5.5h5c.28,0,.5-.22.5-.5s-.22-.5-.5-.5h0Zm11,0h-5c-.28,0-.5.22-.5.5s.22.5.5.5h5c.28,0,.5-.22.5-.5s-.22-.5-.5-.5h0Zm11,0h-5c-.28,0-.5.22-.5.5s.22.5.5.5h5c.28,0,.5-.22.5-.5s-.22-.5-.5-.5h0Zm9.12-3.02c-.2,0-.39.12-.47.32-.49,1.28-1.58,2.25-2.9,2.58-.27.07-.43.34-.36.61.06.23.26.38.48.38.04,0,.08,0,.12-.01,1.24-.31,2.31-1.07,3.02-2.09,0,0,0,0,0,0,0,0,0,0,0-.01,0,0,0,0,0,0,0,0,0,0,0,0,0,0,0,0,0,0,0,0,0,0,0-.01,0,0,0,0,0,0,0,0,0,0,0-.01,0,0,0,0,0,0,0,0,0,0,0,0,0,0,0,0,0,0,0,0,0,0,0-.01,0,0,0,0,0,0,0,0,0,0,0,0,0,0,0,0,0,0,0,0,0,0,0,0,0,0,0,0,0,0,0,0,0,0,0,0,0,0,0,0,0,0,0,0,0,0,0,0,0,0,0,0,0,0,0,0,0,0,0,0,0,0,0,0,0,0,0,0,0,0,0,0,0,0,0,0,0,0,0,0,0,0,0,0,0,0,0,0,0,0,0,0,0,0,0,0,0,0,0,0,0,0,0,0,0,0,0,0,0,0,0,0,0,0,0,0,0,0,0,0,0,0,0,0,0,0,0,0,0,0,0,0,0,0,0,0,0,0,0,0,0,0,0,0,0,0,0,0,0,0,0,0,0,0,0,0,0,0,0,0,0,0,0,0,0,0,0,0,0,0,0,0,0,0,0,0,0,0,0,0,0,0,0,0,0,0,0,0,0,0,0,0,0,0,0,0,0,0,0,0,0,0,0,0,0,0,0,0,0,0,0,0,0,0,0,0,0,0,0,0,0,0,0,0,0,0,0,0,0,0,0,0,0,0,0,0,0,0,0,0,0,0,0,0,0,0,0,0,0,0,0,0,0,0,0,0,0,0,0,0,0,0,0,0,0,0,0,0,0,0,0,0,0,0,0,0,0,0,0,0,0,0,0,0,0,0,0,0,0,0,0,0,0,0,0,0,0,0,0,0,0,0,0,0,0-.01,0,0,0,0,0,0,0,0,0,0,0-.01,0,0,0,0,0,0,.16-.27.3-.55.42-.85.1-.26-.03-.54-.29-.64-.06-.02-.12-.03-.18-.03h0Zm.3-10.78c-.28,0-.5.22-.5.5v5c0,.28.22.5.5.5s.5-.22.5-.5v-5c0-.28-.22-.5-.5-.5h0Zm-.75-10.57c-.09,0-.19.03-.27.08-.23.15-.3.46-.15.69.44.68.67,1.46.67,2.26v2.03c0,.28.22.5.5.5s.5-.22.5-.5v-2.03h0v-.02h0s0,0,0,0h0s0,0,0,0h0s0,0,0,0h0s0,0,0,0h0s0,0,0,0h0s0,0,0,0h0s0,0,0,0h0s0,0,0,0h0s0,0,0,0h0s0,0,0,0c0,0,0,0,0,0,0,0,0,0,0,0h0s0,0,0,0c0,0,0,0,0,0,0,0,0,0,0,0,0,0,0,0,0,0,0,0,0,0,0,0h0s0,0,0,0c0,0,0,0,0,0,0,0,0,0,0,0h0s0,0,0,0c0,0,0,0,0,0,0,0,0,0,0,0,0,0,0,0,0,0,0,0,0,0,0,0h0s0,0,0,0c0,0,0,0,0,0,0,0,0,0,0,0,0,0,0,0,0,0,0,0,0,0,0,0,0,0,0,0,0,0,0,0,0,0,0,0,0,0,0,0,0,0,0,0,0,0,0,0h0s0,0,0,0c0,0,0,0,0,0,0,0,0,0,0,0,0,0,0,0,0,0,0,0,0-.01,0-.02,0,0,0,0,0,0,0,0,0,0,0,0,0,0,0,0,0,0,0,0,0,0,0,0h0s0,0,0,0c0,0,0,0,0,0,0,0,0,0,0,0,0,0,0,0,0,0,0,0,0,0,0,0,0,0,0,0,0,0,0,0,0,0,0,0,0,0,0,0,0,0,0,0,0-.01,0-.01,0,0,0,0,0,0,0,0,0,0,0,0,0,0,0,0,0,0,0,0,0,0,0,0h0s0,0,0,0c0,0,0,0,0,0,0,0,0,0,0,0h0s0,0,0,0c0,0,0,0,0,0,0,0,0,0,0,0,0,0,0,0,0,0,0,0,0-.01,0-.02,0,0,0,0,0,0,0,0,0,0,0,0h0s0,0,0,0h0s0,0,0,0c0,0,0,0,0,0,0,0,0-.01,0-.02,0,0,0,0,0,0,0,0,0,0,0,0,0,0,0,0,0,0,0,0,0-.01,0-.02,0,0,0,0,0,0,0,0,0,0,0,0,0,0,0,0,0,0,0,0,0,0,0,0,0,0,0,0,0,0,0,0,0,0,0,0,0,0,0,0,0,0,0,0,0-.01,0-.02h0s0,0,0,0c0,0,0,0,0,0,0,0,0-.01,0-.02h0s0-.02,0-.02c0,0,0,0,0,0,0,0,0-.01,0-.02h0s0,0,0,0h0s0-.01,0-.02h0c-.07-.65-.27-1.27-.56-1.82,0,0,0,0,0,0,0,0,0-.01-.01-.02,0,0,0,0,0,0,0,0,0,0,0-.01,0,0,0,0,0,0,0,0,0,0,0,0,0,0,0,0,0,0,0,0,0,0,0,0,0,0,0,0,0,0,0,0,0,0,0,0,0,0,0,0,0,0,0,0,0,0,0,0,0,0,0,0,0,0,0,0,0,0,0,0,0,0,0,0,0,0,0,0,0,0,0,0,0,0,0,0,0,0,0,0,0,0,0-.01,0,0,0,0,0,0,0,0,0,0,0,0,0,0,0,0,0,0,0,0,0,0,0,0,0,0,0,0,0,0,0,0,0,0,0,0,0,0,0,0,0,0,0,0,0,0,0,0h0s0,0,0,0c0,0,0,0,0,0,0,0,0,0,0,0,0,0,0,0,0,0,0,0,0,0,0,0,0,0,0,0,0,0,0,0,0,0,0,0,0,0,0,0,0,0,0,0,0,0,0,0,0,0,0,0,0,0,0,0,0,0,0,0,0,0,0,0,0,0,0,0,0,0,0,0,0,0,0,0,0,0,0,0,0,0,0,0,0,0,0,0,0,0,0,0,0,0,0,0,0,0,0,0,0,0,0,0,0,0,0,0,0,0,0,0,0,0,0,0,0,0,0,0,0,0,0,0,0,0,0,0,0,0,0,0,0,0,0,0,0,0,0,0,0,0,0,0,0,0,0,0,0-.01,0,0,0,0,0,0,0,0,0,0,0,0,0,0,0,0,0,0,0,0,0,0,0-.01,0,0,0,0,0,0,0,0,0-.01-.01-.02,0,0,0,0,0,0-.03-.05-.06-.1-.1-.15-.1-.15-.26-.23-.42-.23h0Z"/>
  </g>
  <rect class="cls-34" x="430.57" y="128.06" width="293.96" height="8" rx="2.42" ry="2.42"/>
  <rect class="cls-34" x="452.54" y="173.9" width="250.03" height="5" rx="1.77" ry="1.77"/>
  <g id="symbols">
    <g>
      <g>
        <path class="cls-36" d="m301.9,136.51c-1.05,0-1.9.84-1.9,1.9s.84,1.9,1.9,1.9,1.9-.84,1.9-1.9-.84-1.9-1.9-1.9Z"/>
        <path class="cls-36" d="m301.9,133.92c-2.47,0-4.5,2.02-4.5,4.5s2.02,4.5,4.5,4.5,4.5-2.02,4.5-4.5-2.02-4.5-4.5-4.5Zm0,7.59c-1.71,0-3.09-1.38-3.09-3.09s1.38-3.09,3.09-3.09,3.09,1.38,3.09,3.09-1.38,3.09-3.09,3.09Z"/>
      </g>
      <g>
        <path class="cls-36" d="m301.96,131.67c-.47,0-.84-.38-.84-.84,0-.16-.13-.28-.28-.28s-.28.13-.28.28c0,.47-.38.84-.84.84-.16,0-.28.13-.28.28s.13.28.28.28c.47,0,.84.38.84.84,0,.16.13.28.28.28s.28-.13.28-.28c0-.47.38-.84.84-.84.16,0,.28-.13.28-.28s-.13-.28-.28-.28Z"/>
        <path class="cls-36" d="m296.34,137.29c-.47,0-.84-.38-.84-.84,0-.16-.13-.28-.28-.28s-.28.13-.28.28c0,.47-.38.84-.84.84-.16,0-.28.13-.28.28s.13.28.28.28c.47,0,.84.38.84.84,0,.16.13.28.28.28s.28-.13.28-.28c0-.47.38-.84.84-.84.16,0,.28-.13.28-.28s-.13-.28-.28-.28Z"/>
        <path class="cls-36" d="m296.06,135.04c-.16,0-.28-.13-.28-.28,0-.93-.76-1.68-1.69-1.69-.16,0-.28-.13-.28-.28s.13-.28.28-.28c.93,0,1.68-.76,1.69-1.69,0-.16.13-.28.28-.28s.28.13.28.28c0,.93.76,1.68,1.69,1.69.16,0,.28.13.28.28s-.13.28-.28.28c-.93,0-1.68.76-1.69,1.69,0,.16-.13.28-.28.28Z"/>
      </g>
    </g>
    <g>
      <g>
        <path class="cls-36" d="m859.28,136.51c-1.05,0-1.9.84-1.9,1.9s.84,1.9,1.9,1.9,1.9-.84,1.9-1.9-.84-1.9-1.9-1.9Z"/>
        <path class="cls-36" d="m859.28,133.92c-2.47,0-4.5,2.02-4.5,4.5s2.02,4.5,4.5,4.5,4.5-2.02,4.5-4.5-2.02-4.5-4.5-4.5Zm0,7.59c-1.71,0-3.09-1.38-3.09-3.09s1.38-3.09,3.09-3.09,3.09,1.38,3.09,3.09-1.38,3.09-3.09,3.09Z"/>
      </g>
      <g>
        <path class="cls-36" d="m859.33,131.67c-.47,0-.84-.38-.84-.84,0-.16-.13-.28-.28-.28s-.28.13-.28.28c0,.47-.38.84-.84.84-.16,0-.28.13-.28.28s.13.28.28.28c.47,0,.84.38.84.84,0,.16.13.28.28.28s.28-.13.28-.28c0-.47.38-.84.84-.84.16,0,.28-.13.28-.28s-.13-.28-.28-.28Z"/>
        <path class="cls-36" d="m853.71,137.29c-.47,0-.84-.38-.84-.84,0-.16-.13-.28-.28-.28s-.28.13-.28.28c0,.47-.38.84-.84.84-.16,0-.28.13-.28.28s.13.28.28.28c.47,0,.84.38.84.84,0,.16.13.28.28.28s.28-.13.28-.28c0-.47.38-.84.84-.84.16,0,.28-.13.28-.28s-.13-.28-.28-.28Z"/>
        <path class="cls-36" d="m853.43,135.04c-.16,0-.28-.13-.28-.28,0-.93-.76-1.68-1.69-1.69-.16,0-.28-.13-.28-.28s.13-.28.28-.28c.93,0,1.68-.76,1.69-1.69,0-.16.13-.28.28-.28s.28.13.28.28c0,.93.76,1.68,1.69,1.69.16,0,.28.13.28.28s-.13.28-.28.28c-.93,0-1.68.76-1.69,1.69,0,.16-.13.28-.28.28Z"/>
      </g>
    </g>
    <g>
      <path class="cls-36" d="m579.88,160.57h1c1.7,0,3-1.3,3-3v-3c0-.6-.4-1-1-1h-15v3.5c0,2.3,1.2,4.3,3,5.5h-2c-.6,0-1,.4-1,1s.4,1,1,1h13c.6,0,1-.4,1-1s-.4-1-1-1h-4c.8-.5,1.5-1.2,2-2Zm2-5v2c0,.6-.4,1-1,1h-.2c.1-.5.2-1,.2-1.5v-1.5h1Z"/>
      <rect class="cls-36" x="572.88" y="148.57" width="2" height="3"/>
      <rect class="cls-36" x="568.88" y="148.57" width="2" height="3"/>
      <rect class="cls-36" x="576.88" y="148.57" width="2" height="3"/>
    </g>
    <g>
      <rect class="cls-36" x="398.88" y="135.83" width="16" height="3"/>
      <path class="cls-36" d="m413.88,131.83c0-.3-.1-.5-.3-.7l-1.7-1.7v-1.6c0-.6-.4-1-1-1h-1v-1h2v-3h-5v3h2v1h-6c-.6,0-1,.4-1,1v1.6l-1.7,1.7c-.2.2-.3.4-.3.7v3h14v-3Z"/>
    </g>
    <path class="cls-36" d="m682.64,563.18h8v26c0,1.1.9,2,2,2s2-.9,2-2v-26h8c.55,0,1-.45,1-1,0-.21-.07-.41-.19-.58l-10-14c-.35-.45-1.01-.53-1.46-.17-.06.05-.12.11-.17.17l-10,14c-.32.45-.22,1.07.23,1.39.17.12.37.19.58.19Z"/>
    <path class="cls-36" d="m452.67,563.18h8v26c0,1.1.9,2,2,2s2-.9,2-2v-26h8c.55,0,1-.45,1-1,0-.21-.07-.41-.19-.58l-10-14c-.35-.45-1.01-.53-1.46-.17-.06.05-.12.11-.17.17l-10,14c-.32.45-.22,1.07.23,1.39.17.12.37.19.58.19Z"/>
    <g>
      <path class="cls-36" d="m424.72,56.78v24.38h-7.31v-24.38h7.31Zm-2.02,0h12.29v6.1h-12.29v-6.1Zm0,8.88h11.6v5.92h-11.6v-5.92Zm0,9.4h12.29v6.1h-12.29v-6.1Z"/>
      <path class="cls-36" d="m444.88,74.01c.6.59,1.26,1.04,1.97,1.34.71.3,1.42.45,2.14.45.6,0,1.11-.12,1.53-.37.42-.24.63-.63.63-1.17,0-.32-.11-.6-.33-.84-.22-.23-.66-.5-1.31-.8-.65-.3-1.64-.71-2.96-1.22-.58-.23-1.25-.55-2-.94-.75-.39-1.48-.91-2.16-1.53-.69-.63-1.25-1.39-1.71-2.3-.45-.91-.68-1.97-.68-3.2,0-1.6.43-2.95,1.29-4.04.86-1.09,2-1.92,3.41-2.47,1.42-.56,2.97-.84,4.67-.84,1.83,0,3.41.28,4.72.84,1.31.56,2.39,1.25,3.24,2.09.85.84,1.49,1.67,1.93,2.51l-5.68,3.13c-.37-.58-.78-1.04-1.24-1.38-.45-.34-.91-.59-1.38-.75-.46-.16-.92-.24-1.36-.24-.53,0-.97.09-1.31.28-.34.19-.51.48-.51.87,0,.49.24.89.71,1.2.48.31,1.11.6,1.9.87.79.27,1.66.57,2.61.92.98.35,1.85.76,2.61,1.24.77.48,1.42,1.03,1.97,1.65.54.63.96,1.33,1.24,2.11.28.78.42,1.64.42,2.6,0,1.35-.28,2.54-.84,3.57-.56,1.03-1.31,1.89-2.25,2.56-.94.67-2,1.18-3.19,1.53s-2.4.52-3.66.52c-1.74,0-3.36-.28-4.86-.85-1.5-.57-2.79-1.35-3.88-2.35-1.09-1-1.92-2.11-2.47-3.34l5.15-3.76c.46.81,1,1.52,1.6,2.11Z"/>
      <path class="cls-36" d="m468.29,74.01c.6.59,1.26,1.04,1.97,1.34.71.3,1.42.45,2.14.45.6,0,1.11-.12,1.53-.37.42-.24.63-.63.63-1.17,0-.32-.11-.6-.33-.84-.22-.23-.66-.5-1.31-.8-.65-.3-1.64-.71-2.96-1.22-.58-.23-1.25-.55-2-.94-.75-.39-1.48-.91-2.16-1.53-.69-.63-1.25-1.39-1.71-2.3-.45-.91-.68-1.97-.68-3.2,0-1.6.43-2.95,1.29-4.04.86-1.09,2-1.92,3.41-2.47,1.42-.56,2.97-.84,4.67-.84,1.83,0,3.41.28,4.72.84,1.31.56,2.39,1.25,3.24,2.09.85.84,1.49,1.67,1.93,2.51l-5.68,3.13c-.37-.58-.78-1.04-1.24-1.38-.45-.34-.91-.59-1.38-.75-.46-.16-.92-.24-1.36-.24-.53,0-.97.09-1.31.28-.34.19-.51.48-.51.87,0,.49.24.89.71,1.2.48.31,1.11.6,1.9.87.79.27,1.66.57,2.61.92.98.35,1.85.76,2.61,1.24.77.48,1.42,1.03,1.97,1.65.54.63.96,1.33,1.24,2.11.28.78.42,1.64.42,2.6,0,1.35-.28,2.54-.84,3.57-.56,1.03-1.31,1.89-2.25,2.56-.94.67-2,1.18-3.19,1.53s-2.4.52-3.66.52c-1.74,0-3.36-.28-4.86-.85-1.5-.57-2.79-1.35-3.88-2.35-1.09-1-1.92-2.11-2.47-3.34l5.15-3.76c.46.81,1,1.52,1.6,2.11Z"/>
      <path class="cls-36" d="m493.64,56.78v24.38h-7.31v-24.38h7.31Zm-2.02,0h12.29v6.1h-12.29v-6.1Zm0,8.88h11.6v5.92h-11.6v-5.92Zm0,9.4h12.29v6.1h-12.29v-6.1Z"/>
      <path class="cls-36" d="m531.61,56.78v25.6l-15.85-12.26v11.04h-7.31v-25.6l15.85,12.26v-11.04h7.31Z"/>
      <path class="cls-36" d="m541.85,74.01c.6.59,1.26,1.04,1.97,1.34.71.3,1.42.45,2.14.45.6,0,1.11-.12,1.53-.37.42-.24.63-.63.63-1.17,0-.32-.11-.6-.33-.84-.22-.23-.66-.5-1.31-.8-.65-.3-1.64-.71-2.96-1.22-.58-.23-1.25-.55-2-.94-.75-.39-1.48-.91-2.16-1.53-.69-.63-1.25-1.39-1.71-2.3-.45-.91-.68-1.97-.68-3.2,0-1.6.43-2.95,1.29-4.04.86-1.09,2-1.92,3.41-2.47,1.42-.56,2.97-.84,4.67-.84,1.83,0,3.41.28,4.72.84,1.31.56,2.39,1.25,3.24,2.09.85.84,1.49,1.67,1.93,2.51l-5.68,3.13c-.37-.58-.78-1.04-1.24-1.38-.45-.34-.91-.59-1.38-.75-.46-.16-.92-.24-1.36-.24-.53,0-.97.09-1.31.28-.34.19-.51.48-.51.87,0,.49.24.89.71,1.2.48.31,1.11.6,1.9.87.79.27,1.66.57,2.61.92.98.35,1.85.76,2.61,1.24.77.48,1.42,1.03,1.97,1.65.54.63.96,1.33,1.24,2.11.28.78.42,1.64.42,2.6,0,1.35-.28,2.54-.84,3.57-.56,1.03-1.31,1.89-2.25,2.56-.94.67-2,1.18-3.19,1.53s-2.4.52-3.66.52c-1.74,0-3.36-.28-4.86-.85-1.5-.57-2.79-1.35-3.88-2.35-1.09-1-1.92-2.11-2.47-3.34l5.15-3.76c.46.81,1,1.52,1.6,2.11Z"/>
      <path class="cls-36" d="m568.04,74.58l.59,1.74-2.65,4.84h-8.71l13.76-26.12,13.76,26.12h-8.71l-2.58-4.6.52-1.99-3-6.72-3,6.72Zm-3.38-2.06h12.89v5.5h-12.89v-5.5Z"/>
      <path class="cls-36" d="m594.55,56.78v15.67c0,.98.25,1.77.75,2.39.5.62,1.27.92,2.32.92s1.82-.31,2.32-.92c.5-.61.75-1.41.75-2.39v-15.67h7.66v16.37c0,1.74-.29,3.21-.85,4.41-.57,1.2-1.35,2.16-2.35,2.89-1,.73-2.14,1.27-3.43,1.6-1.29.34-2.65.5-4.09.5s-2.8-.17-4.09-.5c-1.29-.34-2.43-.87-3.43-1.6-1-.73-1.78-1.69-2.35-2.89-.57-1.2-.85-2.66-.85-4.41v-16.37h7.66Z"/>
      <path class="cls-36" d="m618.41,74.01c.6.59,1.26,1.04,1.97,1.34.71.3,1.42.45,2.14.45.6,0,1.11-.12,1.53-.37.42-.24.63-.63.63-1.17,0-.32-.11-.6-.33-.84-.22-.23-.66-.5-1.31-.8-.65-.3-1.64-.71-2.96-1.22-.58-.23-1.25-.55-2-.94-.75-.39-1.47-.91-2.16-1.53-.69-.63-1.25-1.39-1.71-2.3-.45-.91-.68-1.97-.68-3.2,0-1.6.43-2.95,1.29-4.04.86-1.09,2-1.92,3.41-2.47,1.42-.56,2.97-.84,4.67-.84,1.83,0,3.41.28,4.72.84,1.31.56,2.39,1.25,3.24,2.09s1.49,1.67,1.93,2.51l-5.68,3.13c-.37-.58-.78-1.04-1.24-1.38-.45-.34-.91-.59-1.38-.75-.46-.16-.92-.24-1.36-.24-.53,0-.97.09-1.31.28-.34.19-.5.48-.5.87,0,.49.24.89.71,1.2s1.11.6,1.9.87c.79.27,1.66.57,2.61.92.98.35,1.85.76,2.61,1.24.77.48,1.42,1.03,1.97,1.65.55.63.96,1.33,1.24,2.11.28.78.42,1.64.42,2.6,0,1.35-.28,2.54-.84,3.57-.56,1.03-1.31,1.89-2.25,2.56-.94.67-2,1.18-3.19,1.53-1.18.35-2.4.52-3.66.52-1.74,0-3.36-.28-4.86-.85-1.5-.57-2.79-1.35-3.88-2.35-1.09-1-1.92-2.11-2.47-3.34l5.16-3.76c.46.81,1,1.52,1.6,2.11Z"/>
      <path class="cls-36" d="m648.99,67.23h12.96c.19,2.09.03,4.04-.47,5.85-.5,1.81-1.31,3.4-2.42,4.77-1.11,1.37-2.52,2.44-4.21,3.2-1.69.77-3.65,1.15-5.85,1.15-2.04,0-3.91-.31-5.61-.94s-3.16-1.52-4.41-2.68c-1.24-1.16-2.21-2.55-2.89-4.18-.68-1.62-1.03-3.44-1.03-5.43s.36-3.79,1.08-5.38c.72-1.59,1.72-2.94,3.01-4.06,1.29-1.11,2.8-1.97,4.53-2.56,1.73-.59,3.62-.89,5.66-.89,1.86,0,3.5.28,4.93.84,1.43.56,2.68,1.29,3.76,2.21,1.08.92,2.03,1.95,2.84,3.08l-7.14,3.2c-.42-.77-.96-1.44-1.64-2.02-.67-.58-1.59-.87-2.75-.87s-2.18.24-3.13.71c-.95.48-1.71,1.19-2.28,2.14-.57.95-.85,2.15-.85,3.59s.26,2.64.78,3.66c.52,1.02,1.25,1.8,2.19,2.33s2.04.8,3.29.8c.7,0,1.32-.07,1.88-.21.56-.14,1.04-.34,1.45-.59.41-.26.76-.57,1.06-.94.3-.37.56-.78.77-1.22h-5.5v-5.57Z"/>
      <path class="cls-36" d="m672.74,74.58l.59,1.74-2.65,4.84h-8.71l13.76-26.12,13.76,26.12h-8.71l-2.58-4.6.52-1.99-3-6.72-3,6.72Zm-3.38-2.06h12.89v5.5h-12.89v-5.5Z"/>
      <path class="cls-36" d="m697.4,66.36h3.94c.58,0,1.06-.08,1.43-.24.37-.16.65-.39.84-.7s.28-.66.28-1.08c0-.63-.2-1.08-.61-1.38-.41-.29-1.05-.44-1.93-.44h-1.92v12.89h2.61c.58,0,1.12-.05,1.6-.14.49-.09.88-.29,1.18-.59.3-.3.45-.78.45-1.43,0-.39-.09-.71-.26-.96-.17-.24-.41-.43-.71-.56-.3-.13-.64-.21-1.03-.26-.38-.05-.79-.07-1.24-.07h-4.63v-4.18h5.68c1.18,0,2.37.13,3.57.4,1.2.27,2.29.69,3.29,1.27,1,.58,1.81,1.33,2.42,2.25.62.92.92,2.03.92,3.33,0,1.63-.4,2.93-1.2,3.9-.8.98-1.96,1.68-3.48,2.12-1.52.44-3.36.66-5.52.66h-11.32v-24.38h10.62c1.81,0,3.43.23,4.86.7,1.43.46,2.56,1.16,3.4,2.09s1.25,2.09,1.25,3.48-.42,2.54-1.25,3.5c-.84.96-1.97,1.7-3.4,2.19-1.43.5-3.05.75-4.86.75h-4.98v-3.13Z"/>
      <path class="cls-36" d="m724.43,56.78v24.38h-7.31v-24.38h7.31Zm-2.02,0h12.29v6.1h-12.29v-6.1Zm0,8.88h11.6v5.92h-11.6v-5.92Zm0,9.4h12.29v6.1h-12.29v-6.1Z"/>
    </g>
  </g>
  <g id="pin">
    <path class="cls-38" d="m10.11,0C4.53,0,0,4.53,0,10.11c0,6.03,7.66,13.82,9.65,15.74.26.25.67.25.93,0,1.99-1.92,9.65-9.7,9.65-15.74C20.22,4.53,15.7,0,10.11,0Z"/>
    <circle class="cls-37" cx="10.11" cy="10.05" r="3.57"/>
  </g>
</svg>